<svg width="800" height="56" viewBox="0 0 800 56" fill="none" xmlns="http://www.w3.org/2000/svg">
<g clip-path="url(#clip0_2237_90405)">
<path d="M796 0H636C633.791 0 632 1.79086 632 4V52C632 54.2091 633.791 56 636 56H796C798.209 56 800 54.2091 800 52V4C800 1.79086 798.209 0 796 0Z" fill="#00AEEF"/>
<path d="M673.558 34.145C672.61 34.145 671.692 34.001 670.804 33.713C669.928 33.413 669.238 33.029 668.734 32.561L669.4 31.157C669.88 31.589 670.492 31.943 671.236 32.219C671.992 32.483 672.766 32.615 673.558 32.615C674.602 32.615 675.382 32.441 675.898 32.093C676.414 31.733 676.672 31.259 676.672 30.671C676.672 30.239 676.528 29.891 676.24 29.627C675.964 29.351 675.616 29.141 675.196 28.997C674.788 28.853 674.206 28.691 673.45 28.511C672.502 28.283 671.734 28.055 671.146 27.827C670.57 27.599 670.072 27.251 669.652 26.783C669.244 26.303 669.04 25.661 669.04 24.857C669.04 24.185 669.214 23.579 669.562 23.039C669.922 22.499 670.462 22.067 671.182 21.743C671.902 21.419 672.796 21.257 673.864 21.257C674.608 21.257 675.34 21.353 676.06 21.545C676.78 21.737 677.398 22.013 677.914 22.373L677.32 23.813C676.792 23.477 676.228 23.225 675.628 23.057C675.028 22.877 674.44 22.787 673.864 22.787C672.844 22.787 672.076 22.973 671.56 23.345C671.056 23.717 670.804 24.197 670.804 24.785C670.804 25.217 670.948 25.571 671.236 25.847C671.524 26.111 671.878 26.321 672.298 26.477C672.73 26.621 673.312 26.777 674.044 26.945C674.992 27.173 675.754 27.401 676.33 27.629C676.906 27.857 677.398 28.205 677.806 28.673C678.226 29.141 678.436 29.771 678.436 30.563C678.436 31.223 678.256 31.829 677.896 32.381C677.536 32.921 676.99 33.353 676.258 33.677C675.526 33.989 674.626 34.145 673.558 34.145ZM689.706 24.461V34.001H688.068V32.561C687.72 33.053 687.258 33.437 686.682 33.713C686.118 33.977 685.5 34.109 684.828 34.109C683.556 34.109 682.554 33.761 681.822 33.065C681.09 32.357 680.724 31.319 680.724 29.951V24.461H682.452V29.753C682.452 30.677 682.674 31.379 683.118 31.859C683.562 32.327 684.198 32.561 685.026 32.561C685.938 32.561 686.658 32.285 687.186 31.733C687.714 31.181 687.978 30.401 687.978 29.393V24.461H689.706ZM698.053 24.371C698.977 24.371 699.805 24.575 700.537 24.983C701.269 25.391 701.839 25.961 702.247 26.693C702.667 27.425 702.877 28.271 702.877 29.231C702.877 30.191 702.667 31.043 702.247 31.787C701.839 32.519 701.269 33.089 700.537 33.497C699.805 33.905 698.977 34.109 698.053 34.109C697.345 34.109 696.697 33.971 696.109 33.695C695.521 33.419 695.035 33.017 694.651 32.489V34.001H692.995V20.645H694.723V25.901C695.107 25.397 695.587 25.019 696.163 24.767C696.739 24.503 697.369 24.371 698.053 24.371ZM697.909 32.597C698.521 32.597 699.067 32.459 699.547 32.183C700.039 31.895 700.423 31.499 700.699 30.995C700.987 30.479 701.131 29.891 701.131 29.231C701.131 28.571 700.987 27.989 700.699 27.485C700.423 26.969 700.039 26.573 699.547 26.297C699.067 26.021 698.521 25.883 697.909 25.883C697.309 25.883 696.763 26.021 696.271 26.297C695.779 26.573 695.395 26.969 695.119 27.485C694.843 27.989 694.705 28.571 694.705 29.231C694.705 29.891 694.843 30.479 695.119 30.995C695.395 31.499 695.779 31.895 696.271 32.183C696.763 32.459 697.309 32.597 697.909 32.597ZM717.199 24.371C718.399 24.371 719.347 24.719 720.043 25.415C720.751 26.111 721.105 27.143 721.105 28.511V34.001H719.377V28.709C719.377 27.785 719.161 27.089 718.729 26.621C718.309 26.153 717.703 25.919 716.911 25.919C716.035 25.919 715.339 26.195 714.823 26.747C714.307 27.287 714.049 28.067 714.049 29.087V34.001H712.321V28.709C712.321 27.785 712.105 27.089 711.673 26.621C711.253 26.153 710.647 25.919 709.855 25.919C708.979 25.919 708.283 26.195 707.767 26.747C707.251 27.287 706.993 28.067 706.993 29.087V34.001H705.265V24.461H706.921V25.883C707.269 25.391 707.725 25.019 708.289 24.767C708.853 24.503 709.495 24.371 710.215 24.371C710.959 24.371 711.619 24.521 712.195 24.821C712.771 25.121 713.215 25.559 713.527 26.135C713.887 25.583 714.385 25.151 715.021 24.839C715.669 24.527 716.395 24.371 717.199 24.371ZM724.284 24.461H726.012V34.001H724.284V24.461ZM725.148 22.625C724.812 22.625 724.53 22.517 724.302 22.301C724.086 22.085 723.978 21.821 723.978 21.509C723.978 21.197 724.086 20.933 724.302 20.717C724.53 20.489 724.812 20.375 725.148 20.375C725.484 20.375 725.76 20.483 725.976 20.699C726.204 20.903 726.318 21.161 726.318 21.473C726.318 21.797 726.204 22.073 725.976 22.301C725.76 22.517 725.484 22.625 725.148 22.625ZM734.676 33.443C734.424 33.659 734.112 33.827 733.74 33.947C733.368 34.055 732.984 34.109 732.588 34.109C731.628 34.109 730.884 33.851 730.356 33.335C729.828 32.819 729.564 32.081 729.564 31.121V25.883H727.944V24.461H729.564V22.373H731.292V24.461H734.028V25.883H731.292V31.049C731.292 31.565 731.418 31.961 731.67 32.237C731.934 32.513 732.306 32.651 732.786 32.651C733.314 32.651 733.764 32.501 734.136 32.201L734.676 33.443Z" fill="white"/>
<path d="M757.023 32.9375V37.189C757.023 37.486 757.214 37.7491 757.496 37.8426C757.567 37.8655 757.639 37.8765 757.711 37.8765C757.925 37.8765 758.133 37.7757 758.265 37.596L760.752 34.2117L757.023 32.9375Z" fill="white"/>
<path d="M770.711 16.9166C770.5 16.7671 770.224 16.747 769.994 16.8671L749.369 27.6379C749.126 27.7653 748.982 28.0256 749.002 28.2997C749.023 28.5747 749.205 28.8094 749.465 28.8983L755.199 30.8581L767.409 20.4173L757.96 31.8014L767.57 35.0858C767.641 35.1096 767.717 35.1225 767.792 35.1225C767.916 35.1225 768.04 35.0886 768.149 35.0226C768.323 34.9162 768.442 34.7375 768.472 34.5367L770.993 17.5784C771.03 17.3217 770.922 17.0669 770.711 16.9166Z" fill="white"/>
<path d="M296 0H4C1.79086 0 0 1.79086 0 4V52C0 54.2091 1.79086 56 4 56H296C298.209 56 300 54.2091 300 52V4C300 1.79086 298.209 0 296 0Z" fill="#F6F6F6"/>
<path d="M21.2233 29.6151V33.0031H19.8373V29.5871L15.9453 23.2031H17.4433L20.5793 28.3691L23.7293 23.2031H25.1153L21.2233 29.6151ZM28.6838 33.0871C27.9464 33.0871 27.2838 32.9238 26.6958 32.5971C26.1078 32.2704 25.6458 31.8224 25.3098 31.2531C24.9831 30.6744 24.8198 30.0211 24.8198 29.2931C24.8198 28.5651 24.9831 27.9164 25.3098 27.3471C25.6458 26.7684 26.1078 26.3204 26.6958 26.0031C27.2838 25.6764 27.9464 25.5131 28.6838 25.5131C29.4211 25.5131 30.0791 25.6764 30.6578 26.0031C31.2458 26.3204 31.7031 26.7684 32.0298 27.3471C32.3658 27.9164 32.5338 28.5651 32.5338 29.2931C32.5338 30.0211 32.3658 30.6744 32.0298 31.2531C31.7031 31.8224 31.2458 32.2704 30.6578 32.5971C30.0791 32.9238 29.4211 33.0871 28.6838 33.0871ZM28.6838 31.9111C29.1598 31.9111 29.5844 31.8038 29.9578 31.5891C30.3404 31.3651 30.6391 31.0571 30.8538 30.6651C31.0684 30.2638 31.1758 29.8064 31.1758 29.2931C31.1758 28.7798 31.0684 28.3271 30.8538 27.9351C30.6391 27.5338 30.3404 27.2258 29.9578 27.0111C29.5844 26.7964 29.1598 26.6891 28.6838 26.6891C28.2078 26.6891 27.7784 26.7964 27.3958 27.0111C27.0224 27.2258 26.7238 27.5338 26.4998 27.9351C26.2851 28.3271 26.1778 28.7798 26.1778 29.2931C26.1778 29.8064 26.2851 30.2638 26.4998 30.6651C26.7238 31.0571 27.0224 31.3651 27.3958 31.5891C27.7784 31.8038 28.2078 31.9111 28.6838 31.9111ZM41.3085 25.5831V33.0031H40.0345V31.8831C39.7638 32.2658 39.4045 32.5644 38.9565 32.7791C38.5178 32.9844 38.0372 33.0871 37.5145 33.0871C36.5252 33.0871 35.7458 32.8164 35.1765 32.2751C34.6072 31.7244 34.3225 30.9171 34.3225 29.8531V25.5831H35.6665V29.6991C35.6665 30.4178 35.8392 30.9638 36.1845 31.3371C36.5298 31.7011 37.0245 31.8831 37.6685 31.8831C38.3778 31.8831 38.9378 31.6684 39.3485 31.2391C39.7592 30.8098 39.9645 30.2031 39.9645 29.4191V25.5831H41.3085ZM45.1551 26.8291C45.3884 26.3998 45.7338 26.0731 46.1911 25.8491C46.6484 25.6251 47.2038 25.5131 47.8571 25.5131V26.8151C47.7824 26.8058 47.6798 26.8011 47.5491 26.8011C46.8211 26.8011 46.2471 27.0204 45.8271 27.4591C45.4164 27.8884 45.2111 28.5044 45.2111 29.3071V33.0031H43.8671V25.5831H45.1551V26.8291ZM61.9931 23.2031V33.0031H60.8451L54.9651 25.6951V33.0031H53.5651V23.2031H54.7131L60.5931 30.5111V23.2031H61.9931ZM67.4324 25.5131C68.459 25.5131 69.243 25.7651 69.7844 26.2691C70.335 26.7731 70.6104 27.5244 70.6104 28.5231V33.0031H69.3364V32.0231C69.1124 32.3684 68.7904 32.6344 68.3704 32.8211C67.9597 32.9984 67.4697 33.0871 66.9004 33.0871C66.0697 33.0871 65.4024 32.8864 64.8984 32.4851C64.4037 32.0838 64.1564 31.5564 64.1564 30.9031C64.1564 30.2498 64.3944 29.7271 64.8704 29.3351C65.3464 28.9338 66.1024 28.7331 67.1384 28.7331H69.2664V28.4671C69.2664 27.8884 69.0984 27.4451 68.7624 27.1371C68.4264 26.8291 67.9317 26.6751 67.2784 26.6751C66.8397 26.6751 66.4104 26.7498 65.9904 26.8991C65.5704 27.0391 65.2157 27.2304 64.9264 27.4731L64.3664 26.4651C64.749 26.1571 65.2064 25.9238 65.7384 25.7651C66.2704 25.5971 66.835 25.5131 67.4324 25.5131ZM67.1244 32.0511C67.6377 32.0511 68.081 31.9391 68.4544 31.7151C68.8277 31.4818 69.0984 31.1551 69.2664 30.7351V29.6991H67.1944C66.0557 29.6991 65.4864 30.0818 65.4864 30.8471C65.4864 31.2204 65.631 31.5144 65.9204 31.7291C66.2097 31.9438 66.611 32.0511 67.1244 32.0511ZM82.3796 25.5131C83.3129 25.5131 84.0502 25.7838 84.5916 26.3251C85.1422 26.8664 85.4176 27.6691 85.4176 28.7331V33.0031H84.0736V28.8871C84.0736 28.1684 83.9056 27.6271 83.5696 27.2631C83.2429 26.8991 82.7716 26.7171 82.1556 26.7171C81.4742 26.7171 80.9329 26.9318 80.5316 27.3611C80.1302 27.7811 79.9296 28.3878 79.9296 29.1811V33.0031H78.5856V28.8871C78.5856 28.1684 78.4176 27.6271 78.0816 27.2631C77.7549 26.8991 77.2836 26.7171 76.6676 26.7171C75.9862 26.7171 75.4449 26.9318 75.0436 27.3611C74.6422 27.7811 74.4416 28.3878 74.4416 29.1811V33.0031H73.0976V25.5831H74.3856V26.6891C74.6562 26.3064 75.0109 26.0171 75.4496 25.8211C75.8882 25.6158 76.3876 25.5131 76.9476 25.5131C77.5262 25.5131 78.0396 25.6298 78.4876 25.8631C78.9356 26.0964 79.2809 26.4371 79.5236 26.8851C79.8036 26.4558 80.1909 26.1198 80.6856 25.8771C81.1896 25.6344 81.7542 25.5131 82.3796 25.5131ZM94.6376 29.3351C94.6376 29.4378 94.6282 29.5731 94.6096 29.7411H88.5896C88.6736 30.3944 88.9582 30.9218 89.4436 31.3231C89.9382 31.7151 90.5496 31.9111 91.2776 31.9111C92.1642 31.9111 92.8782 31.6124 93.4196 31.0151L94.1616 31.8831C93.8256 32.2751 93.4056 32.5738 92.9016 32.7791C92.4069 32.9844 91.8516 33.0871 91.2356 33.0871C90.4516 33.0871 89.7562 32.9284 89.1496 32.6111C88.5429 32.2844 88.0716 31.8318 87.7356 31.2531C87.4089 30.6744 87.2456 30.0211 87.2456 29.2931C87.2456 28.5744 87.4042 27.9258 87.7216 27.3471C88.0482 26.7684 88.4916 26.3204 89.0516 26.0031C89.6209 25.6764 90.2602 25.5131 90.9696 25.5131C91.6789 25.5131 92.3089 25.6764 92.8596 26.0031C93.4196 26.3204 93.8536 26.7684 94.1616 27.3471C94.4789 27.9258 94.6376 28.5884 94.6376 29.3351ZM90.9696 26.6471C90.3256 26.6471 89.7842 26.8431 89.3456 27.2351C88.9162 27.6271 88.6642 28.1404 88.5896 28.7751H93.3496C93.2749 28.1498 93.0182 27.6411 92.5796 27.2491C92.1502 26.8478 91.6136 26.6471 90.9696 26.6471Z" fill="#051E39" fill-opacity="0.6"/>
<path d="M296 0.5H4C2.067 0.5 0.5 2.067 0.5 4V52C0.5 53.933 2.067 55.5 4 55.5H296C297.933 55.5 299.5 53.933 299.5 52V4C299.5 2.067 297.933 0.5 296 0.5Z" stroke="#051E39" stroke-opacity="0.05"/>
<path d="M612 0H320C317.791 0 316 1.79086 316 4V52C316 54.2091 317.791 56 320 56H612C614.209 56 616 54.2091 616 52V4C616 1.79086 614.209 0 612 0Z" fill="#F6F6F6"/>
<path d="M337.223 29.6084V32.9964H335.837V29.5804L331.945 23.1964H333.443L336.579 28.3624L339.729 23.1964H341.115L337.223 29.6084ZM344.683 33.0804C343.946 33.0804 343.283 32.9171 342.695 32.5904C342.107 32.2637 341.645 31.8157 341.309 31.2464C340.983 30.6677 340.819 30.0144 340.819 29.2864C340.819 28.5584 340.983 27.9097 341.309 27.3404C341.645 26.7617 342.107 26.3137 342.695 25.9964C343.283 25.6697 343.946 25.5064 344.683 25.5064C345.421 25.5064 346.079 25.6697 346.657 25.9964C347.245 26.3137 347.703 26.7617 348.029 27.3404C348.365 27.9097 348.533 28.5584 348.533 29.2864C348.533 30.0144 348.365 30.6677 348.029 31.2464C347.703 31.8157 347.245 32.2637 346.657 32.5904C346.079 32.9171 345.421 33.0804 344.683 33.0804ZM344.683 31.9044C345.159 31.9044 345.584 31.7971 345.957 31.5824C346.34 31.3584 346.639 31.0504 346.853 30.6584C347.068 30.2571 347.175 29.7997 347.175 29.2864C347.175 28.7731 347.068 28.3204 346.853 27.9284C346.639 27.5271 346.34 27.2191 345.957 27.0044C345.584 26.7897 345.159 26.6824 344.683 26.6824C344.207 26.6824 343.778 26.7897 343.395 27.0044C343.022 27.2191 342.723 27.5271 342.499 27.9284C342.285 28.3204 342.177 28.7731 342.177 29.2864C342.177 29.7997 342.285 30.2571 342.499 30.6584C342.723 31.0504 343.022 31.3584 343.395 31.5824C343.778 31.7971 344.207 31.9044 344.683 31.9044ZM357.308 25.5764V32.9964H356.034V31.8764C355.764 32.2591 355.404 32.5577 354.956 32.7724C354.518 32.9777 354.037 33.0804 353.514 33.0804C352.525 33.0804 351.746 32.8097 351.176 32.2684C350.607 31.7177 350.322 30.9104 350.322 29.8464V25.5764H351.666V29.6924C351.666 30.4111 351.839 30.9571 352.184 31.3304C352.53 31.6944 353.024 31.8764 353.668 31.8764C354.378 31.8764 354.938 31.6617 355.348 31.2324C355.759 30.8031 355.964 30.1964 355.964 29.4124V25.5764H357.308ZM361.155 26.8224C361.388 26.3931 361.733 26.0664 362.191 25.8424C362.648 25.6184 363.203 25.5064 363.857 25.5064V26.8084C363.782 26.7991 363.679 26.7944 363.549 26.7944C362.821 26.7944 362.247 27.0137 361.827 27.4524C361.416 27.8817 361.211 28.4977 361.211 29.3004V32.9964H359.867V25.5764H361.155V26.8224ZM376.677 31.7784V32.9964H369.565V23.1964H376.481V24.4144H370.965V27.4244H375.879V28.6144H370.965V31.7784H376.677ZM388.03 25.5064C388.963 25.5064 389.7 25.7771 390.242 26.3184C390.792 26.8597 391.068 27.6624 391.068 28.7264V32.9964H389.724V28.8804C389.724 28.1617 389.556 27.6204 389.22 27.2564C388.893 26.8924 388.422 26.7104 387.806 26.7104C387.124 26.7104 386.583 26.9251 386.182 27.3544C385.78 27.7744 385.58 28.3811 385.58 29.1744V32.9964H384.236V28.8804C384.236 28.1617 384.068 27.6204 383.732 27.2564C383.405 26.8924 382.934 26.7104 382.318 26.7104C381.636 26.7104 381.095 26.9251 380.694 27.3544C380.292 27.7744 380.092 28.3811 380.092 29.1744V32.9964H378.748V25.5764H380.036V26.6824C380.306 26.2997 380.661 26.0104 381.1 25.8144C381.538 25.6091 382.038 25.5064 382.598 25.5064C383.176 25.5064 383.69 25.6231 384.138 25.8564C384.586 26.0897 384.931 26.4304 385.174 26.8784C385.454 26.4491 385.841 26.1131 386.336 25.8704C386.84 25.6277 387.404 25.5064 388.03 25.5064ZM396.243 25.5064C397.269 25.5064 398.053 25.7584 398.595 26.2624C399.145 26.7664 399.421 27.5177 399.421 28.5164V32.9964H398.147V32.0164C397.923 32.3617 397.601 32.6277 397.181 32.8144C396.77 32.9917 396.28 33.0804 395.711 33.0804C394.88 33.0804 394.213 32.8797 393.709 32.4784C393.214 32.0771 392.967 31.5497 392.967 30.8964C392.967 30.2431 393.205 29.7204 393.681 29.3284C394.157 28.9271 394.913 28.7264 395.949 28.7264H398.077V28.4604C398.077 27.8817 397.909 27.4384 397.573 27.1304C397.237 26.8224 396.742 26.6684 396.089 26.6684C395.65 26.6684 395.221 26.7431 394.801 26.8924C394.381 27.0324 394.026 27.2237 393.737 27.4664L393.177 26.4584C393.559 26.1504 394.017 25.9171 394.549 25.7584C395.081 25.5904 395.645 25.5064 396.243 25.5064ZM395.935 32.0444C396.448 32.0444 396.891 31.9324 397.265 31.7084C397.638 31.4751 397.909 31.1484 398.077 30.7284V29.6924H396.005C394.866 29.6924 394.297 30.0751 394.297 30.8404C394.297 31.2137 394.441 31.5077 394.731 31.7224C395.02 31.9371 395.421 32.0444 395.935 32.0444ZM401.908 25.5764H403.252V32.9964H401.908V25.5764ZM402.58 24.1484C402.318 24.1484 402.099 24.0644 401.922 23.8964C401.754 23.7284 401.67 23.5231 401.67 23.2804C401.67 23.0377 401.754 22.8324 401.922 22.6644C402.099 22.4871 402.318 22.3984 402.58 22.3984C402.841 22.3984 403.056 22.4824 403.224 22.6504C403.401 22.8091 403.49 23.0097 403.49 23.2524C403.49 23.5044 403.401 23.7191 403.224 23.8964C403.056 24.0644 402.841 24.1484 402.58 24.1484ZM405.818 22.6084H407.162V32.9964H405.818V22.6084Z" fill="#051E39" fill-opacity="0.6"/>
<path d="M612 0.5H320C318.067 0.5 316.5 2.067 316.5 4V52C316.5 53.933 318.067 55.5 320 55.5H612C613.933 55.5 615.5 53.933 615.5 52V4C615.5 2.067 613.933 0.5 612 0.5Z" stroke="#051E39" stroke-opacity="0.05"/>
<path opacity="0.25" d="M273.399 38.4844L273.46 40.5533L263.3 40.8541L263.238 38.7852L273.399 38.4844ZM263.246 21.652L263.814 40.8389L261.27 40.9142L260.702 21.7272L263.246 21.652ZM271.792 29.6555L271.853 31.7245L263.037 31.9854L262.976 29.9165L271.792 29.6555ZM272.76 21.3703L272.822 23.4524L262.793 23.7493L262.732 21.6672L272.76 21.3703ZM304.677 20.4256L309.507 27.6423L313.901 20.1526L316.866 20.0648L311.086 29.7455L317.579 39.2474L314.588 39.336L309.635 31.9778L305.126 39.616L302.135 39.7046L308.055 29.8352L301.712 20.5134L304.677 20.4256ZM354.091 20.6644L348.257 38.3394L345.661 38.4162L352.407 19.0129L354.08 18.9633L354.091 20.6644ZM359.933 37.9938L353.05 20.6952L352.96 18.9965L354.634 18.9469L362.542 37.9166L359.933 37.9938ZM359.393 30.9007L359.455 32.9828L348.675 33.3019L348.613 31.2198L359.393 30.9007ZM392.336 17.831L394.8 17.758L401.549 33.2141L407.358 17.3863L409.836 17.313L402.602 36.7308L400.678 36.7878L392.336 17.831ZM391.532 17.8548L393.706 17.7904L394.408 29.4818L394.63 36.9668L392.1 37.0417L391.532 17.8548ZM408.452 17.3539L410.626 17.2896L411.194 36.4765L408.664 36.5514L408.443 29.0664L408.452 17.3539ZM449.504 27.8114L444.377 27.9632L444.316 25.8943L449.442 25.7425C450.435 25.7131 451.234 25.5312 451.84 25.1967C452.445 24.8623 452.881 24.4097 453.145 23.8392C453.418 23.2683 453.544 22.6227 453.523 21.9023C453.503 21.2434 453.34 20.6284 453.033 20.0571C452.735 19.4856 452.273 19.0333 451.648 18.7001C451.022 18.3581 450.213 18.2018 449.22 18.2312L444.687 18.3653L445.193 35.4702L442.65 35.5454L442.082 16.3585L449.158 16.1491C450.608 16.1062 451.841 16.3203 452.857 16.7914C453.874 17.2625 454.654 17.934 455.199 18.806C455.743 19.6692 456.032 20.6674 456.065 21.8007C456.102 23.0306 455.874 24.0881 455.381 24.9732C454.889 25.8583 454.148 26.5441 453.16 27.0305C452.172 27.5082 450.953 27.7685 449.504 27.8114ZM498.239 31.8293L498.3 33.8982L488.706 34.1822L488.645 32.1133L498.239 31.8293ZM488.639 14.9805L489.207 34.1674L486.664 34.2427L486.096 15.0557L488.639 14.9805ZM540.328 30.5835L540.39 32.6524L530.23 32.9531L530.168 30.8842L540.328 30.5835ZM530.176 13.751L530.744 32.9379L528.2 33.0132L527.632 13.8263L530.176 13.751ZM538.722 21.7546L538.783 23.8235L529.967 24.0845L529.906 22.0155L538.722 21.7546ZM539.69 13.4694L539.752 15.5515L529.723 15.8483L529.662 13.7662L539.69 13.4694Z" fill="black"/>
</g>
<defs>
<clipPath id="clip0_2237_90405">
<rect width="800" height="56" fill="white"/>
</clipPath>
</defs>
</svg>
