<svg width="240" height="36" viewBox="0 0 240 36" fill="none" xmlns="http://www.w3.org/2000/svg">
<g clip-path="url(#clip0_965_21869)">
<path d="M54.2529 35.3491C49.9824 35.9015 45.6735 36.1045 41.3695 35.9561C16.3033 35.2809 0 27.0561 0 19.6973C0 13.7776 8.1448 8.97632 15.0329 7.20312C10.9879 9.76061 5.2536 12.0385 5.34975 18.231C5.43215 23.8302 17.1824 33.0576 42.434 34.824C49.6173 35.3219 51.4304 35.3491 54.2529 35.3491Z" fill="#093C71"/>
<path d="M13.8018 19.039C13.8018 24.8897 21.5415 30.0767 33.4772 33.3C18.458 30.2934 8.27344 24.4563 8.27344 17.7253C8.27344 7.9539 29.9404 -0.341308 56.6413 0.0108153C65.9674 0.132704 69.4287 0.965611 70.8022 1.23647C68.4741 1.23647 70.5755 1.31773 62.1628 1.30419C36.7256 1.27033 13.8018 9.25405 13.8018 19.039Z" fill="#0971CE"/>
<path d="M107.586 12.8798C106.742 12.2769 105.856 11.7333 104.934 11.2529C96.7732 6.9712 82.9163 4.86779 67.3169 4.86779C42.2615 4.86779 20.5876 13.084 20.5876 22.0354C20.6577 24.2153 21.5181 26.2978 23.0119 27.9031C22.531 27.5826 22.0709 27.2324 21.6345 26.8548C20.6595 26.0195 19.8685 24.9952 19.3105 23.8453C18.7525 22.6955 18.4394 21.4446 18.3906 20.1702C18.3906 11.212 40.092 2.70312 65.175 2.70312C80.7744 2.70312 94.5762 5.09923 102.71 9.38092C104.508 10.2915 106.153 11.4717 107.586 12.8798Z" fill="#00AEEF"/>
<path d="M57.7601 11.7031H35.6852C35.4809 11.7024 35.2799 11.7535 35.1024 11.8514C34.925 11.9492 34.7772 12.0903 34.6738 12.2606L25.8493 26.8472C25.7849 26.9536 25.7506 27.0746 25.75 27.1979C25.7494 27.3212 25.7824 27.4425 25.8457 27.5495C25.909 27.6566 26.0004 27.7456 26.1107 27.8077C26.2209 27.8698 26.3462 27.9027 26.4738 27.9031H51.4539C51.752 27.9038 52.0459 27.835 52.3106 27.7026C52.5753 27.5701 52.803 27.3779 52.9745 27.1423L56.4635 22.4069C56.6212 22.1874 56.7057 21.9265 56.7057 21.6592C56.7057 21.392 56.6212 21.1311 56.4635 20.9115L56.0359 20.3016C56.0013 20.2507 55.9811 20.1919 55.9774 20.1311C55.9737 20.0704 55.9866 20.0097 56.0148 19.9553C56.043 19.9008 56.0855 19.8544 56.138 19.8208C56.1906 19.7872 56.2513 19.7676 56.3142 19.7638L57.3664 19.6916C57.5359 19.6823 57.7005 19.6333 57.8459 19.5487C57.9914 19.4641 58.1134 19.3466 58.2013 19.2063L60.2377 16.0581C60.534 15.6094 60.6917 15.0884 60.6925 14.5562C60.6925 13.8029 60.3842 13.0802 59.8349 12.5457C59.2855 12.0112 58.5397 11.7083 57.7601 11.7031ZM48.5011 22.3413L47.639 23.7121C47.5788 23.8005 47.4974 23.8735 47.4016 23.9249C47.3059 23.9763 47.1987 24.0046 47.0892 24.0073H35.5495C35.489 24.0076 35.4296 23.9923 35.3774 23.9631C35.3251 23.9338 35.2818 23.8916 35.2521 23.8408C35.2223 23.79 35.2071 23.7324 35.2081 23.6741C35.2091 23.6157 35.2262 23.5587 35.2576 23.5088L36.0857 22.1971C36.1466 22.1004 36.2324 22.0206 36.3347 21.9654C36.437 21.9102 36.5523 21.8816 36.6695 21.8822H48.2092C48.2653 21.8819 48.3205 21.8955 48.3696 21.9217C48.4186 21.948 48.4598 21.9861 48.4892 22.0323C48.5185 22.0784 48.535 22.1311 48.5371 22.1853C48.5392 22.2394 48.5268 22.2932 48.5011 22.3413ZM51.9698 16.4385L51.101 17.8093C51.0408 17.8977 50.9593 17.9707 50.8636 18.0221C50.7678 18.0735 50.6606 18.1017 50.5511 18.1044H39.0453C38.9843 18.106 38.924 18.0916 38.8708 18.0628C38.8176 18.034 38.7733 17.9919 38.7428 17.9409C38.7122 17.8899 38.6964 17.8319 38.6971 17.7729C38.6978 17.714 38.7149 17.6563 38.7466 17.606L39.5816 16.2942C39.6419 16.1985 39.7266 16.1193 39.8276 16.0642C39.9286 16.0091 40.0426 15.9799 40.1586 15.9794H51.6983C51.7508 15.9832 51.8016 15.9992 51.8462 16.0261C51.8909 16.053 51.9282 16.0899 51.9549 16.1337C51.9816 16.1776 51.9969 16.227 51.9995 16.2778C52.0021 16.3286 51.9919 16.3792 51.9698 16.4254V16.4385Z" fill="#0971CE"/>
</g>
<defs>
<clipPath id="clip0_965_21869">
<rect width="240" height="36" fill="white"/>
</clipPath>
</defs>
</svg>
