<svg width="240" height="36" viewBox="0 0 240 36" fill="none" xmlns="http://www.w3.org/2000/svg">
<g clip-path="url(#clip0_965_21869)">
<path d="M54.2529 35.3491C49.9824 35.9015 45.6735 36.1045 41.3695 35.9561C16.3033 35.2809 0 27.0561 0 19.6973C0 13.7776 8.1448 8.97632 15.0329 7.20312C10.9879 9.76061 5.2536 12.0385 5.34975 18.231C5.43215 23.8302 17.1824 33.0576 42.434 34.824C49.6173 35.3219 51.4304 35.3491 54.2529 35.3491Z" fill="#093C71"/>
<path d="M13.8018 19.039C13.8018 24.8897 21.5415 30.0767 33.4772 33.3C18.458 30.2934 8.27344 24.4563 8.27344 17.7253C8.27344 7.9539 29.9404 -0.341308 56.6413 0.0108153C65.9674 0.132704 69.4287 0.965611 70.8022 1.23647C68.4741 1.23647 70.5755 1.31773 62.1628 1.30419C36.7256 1.27033 13.8018 9.25405 13.8018 19.039Z" fill="#0971CE"/>
<path d="M107.586 12.8798C106.742 12.2769 105.856 11.7333 104.934 11.2529C96.7732 6.9712 82.9163 4.86779 67.3169 4.86779C42.2615 4.86779 20.5876 13.084 20.5876 22.0354C20.6577 24.2153 21.5181 26.2978 23.0119 27.9031C22.531 27.5826 22.0709 27.2324 21.6345 26.8548C20.6595 26.0195 19.8685 24.9952 19.3105 23.8453C18.7525 22.6955 18.4394 21.4446 18.3906 20.1702C18.3906 11.212 40.092 2.70312 65.175 2.70312C80.7744 2.70312 94.5762 5.09923 102.71 9.38092C104.508 10.2915 106.153 11.4717 107.586 12.8798Z" fill="#00AEEF"/>
<path d="M57.7601 11.7031H35.6852C35.4809 11.7024 35.2799 11.7535 35.1024 11.8514C34.925 11.9492 34.7772 12.0903 34.6738 12.2606L25.8493 26.8472C25.7849 26.9536 25.7506 27.0746 25.75 27.1979C25.7494 27.3212 25.7824 27.4425 25.8457 27.5495C25.909 27.6566 26.0004 27.7456 26.1107 27.8077C26.2209 27.8698 26.3462 27.9027 26.4738 27.9031H51.4539C51.752 27.9038 52.0459 27.835 52.3106 27.7026C52.5753 27.5701 52.803 27.3779 52.9745 27.1423L56.4635 22.4069C56.6212 22.1874 56.7057 21.9265 56.7057 21.6592C56.7057 21.392 56.6212 21.1311 56.4635 20.9115L56.0359 20.3016C56.0013 20.2507 55.9811 20.1919 55.9774 20.1311C55.9737 20.0704 55.9866 20.0097 56.0148 19.9553C56.043 19.9008 56.0855 19.8544 56.138 19.8208C56.1906 19.7872 56.2513 19.7676 56.3142 19.7638L57.3664 19.6916C57.5359 19.6823 57.7005 19.6333 57.8459 19.5487C57.9914 19.4641 58.1134 19.3466 58.2013 19.2063L60.2377 16.0581C60.534 15.6094 60.6917 15.0884 60.6925 14.5562C60.6925 13.8029 60.3842 13.0802 59.8349 12.5457C59.2855 12.0112 58.5397 11.7083 57.7601 11.7031ZM48.5011 22.3413L47.639 23.7121C47.5788 23.8005 47.4974 23.8735 47.4016 23.9249C47.3059 23.9763 47.1987 24.0046 47.0892 24.0073H35.5495C35.489 24.0076 35.4296 23.9923 35.3774 23.9631C35.3251 23.9338 35.2818 23.8916 35.2521 23.8408C35.2223 23.79 35.2071 23.7324 35.2081 23.6741C35.2091 23.6157 35.2262 23.5587 35.2576 23.5088L36.0857 22.1971C36.1466 22.1004 36.2324 22.0206 36.3347 21.9654C36.437 21.9102 36.5523 21.8816 36.6695 21.8822H48.2092C48.2653 21.8819 48.3205 21.8955 48.3696 21.9217C48.4186 21.948 48.4598 21.9861 48.4892 22.0323C48.5185 22.0784 48.535 22.1311 48.5371 22.1853C48.5392 22.2394 48.5268 22.2932 48.5011 22.3413ZM51.9698 16.4385L51.101 17.8093C51.0408 17.8977 50.9593 17.9707 50.8636 18.0221C50.7678 18.0735 50.6606 18.1017 50.5511 18.1044H39.0453C38.9843 18.106 38.924 18.0916 38.8708 18.0628C38.8176 18.034 38.7733 17.9919 38.7428 17.9409C38.7122 17.8899 38.6964 17.8319 38.6971 17.7729C38.6978 17.714 38.7149 17.6563 38.7466 17.606L39.5816 16.2942C39.6419 16.1985 39.7266 16.1193 39.8276 16.0642C39.9286 16.0091 40.0426 15.9799 40.1586 15.9794H51.6983C51.7508 15.9832 51.8016 15.9992 51.8462 16.0261C51.8909 16.053 51.9282 16.0899 51.9549 16.1337C51.9816 16.1776 51.9969 16.227 51.9995 16.2778C52.0021 16.3286 51.9919 16.3792 51.9698 16.4254V16.4385Z" fill="#0971CE"/>
<path d="M65.1204 12.4911L57.3339 24.6198C57.1264 24.9477 57.0139 25.322 57.0081 25.7045C57.0022 26.0871 57.1031 26.4643 57.3005 26.7978C57.4978 27.1314 57.7847 27.4093 58.1319 27.6035C58.4791 27.7976 58.8742 27.901 59.2771 27.9031H82.8579C82.9529 27.9032 83.0462 27.8788 83.1278 27.8326C83.2094 27.7863 83.2762 27.7199 83.3212 27.6405L85.1537 24.4228C85.1746 24.3886 85.1854 24.3497 85.1853 24.3102C85.1851 24.2707 85.1739 24.232 85.1528 24.1979C85.1317 24.1639 85.1015 24.1357 85.0652 24.1164C85.0289 24.0971 84.9879 24.0872 84.9463 24.0879L66.0678 24.0354C66.0178 24.0351 65.9688 24.0223 65.9257 23.9983C65.8826 23.9742 65.847 23.9398 65.8224 23.8985C65.7978 23.8571 65.7852 23.8104 65.7858 23.7629C65.7864 23.7155 65.8002 23.669 65.8258 23.6282L67.0083 21.7567C67.0548 21.6829 67.1206 21.6217 67.1994 21.5791C67.2781 21.5365 67.3671 21.514 67.4578 21.5138H86.3916C86.4686 21.5126 86.5441 21.4927 86.6107 21.4559C86.6773 21.4191 86.7328 21.3667 86.7719 21.3036L88.7635 18.0203C88.7862 17.9804 88.7976 17.9355 88.7966 17.8902C88.7956 17.8448 88.7823 17.8005 88.758 17.7615C88.7336 17.7225 88.699 17.6901 88.6576 17.6676C88.6161 17.645 88.5692 17.6331 88.5214 17.6328L69.8089 17.6854C69.7631 17.6852 69.7181 17.6734 69.6787 17.651C69.6393 17.6287 69.607 17.5968 69.5851 17.5585C69.5631 17.5202 69.5525 17.4771 69.5541 17.4335C69.5558 17.39 69.5698 17.3477 69.5946 17.3111L70.6388 15.781C70.6741 15.7315 70.7214 15.6908 70.7768 15.6622C70.8321 15.6337 70.8939 15.6181 70.9569 15.6169H89.6279C89.8091 15.6178 89.9871 15.571 90.1422 15.4818C90.2972 15.3925 90.4231 15.2643 90.5061 15.1112L91.8891 12.629C91.9354 12.5316 91.956 12.425 91.949 12.3183C91.9421 12.2117 91.9078 12.1082 91.8492 12.017C91.7906 11.9258 91.7094 11.8495 91.6128 11.7948C91.5161 11.7401 91.4068 11.7086 91.2944 11.7031H66.6141C66.315 11.7023 66.0206 11.7742 65.7591 11.9122C65.4976 12.0502 65.2777 12.2495 65.1204 12.4911Z" fill="#0971CE"/>
<path d="M156.197 12.4911L148.373 24.6198C148.165 24.9482 148.053 25.323 148.047 25.7062C148.042 26.0893 148.143 26.4669 148.342 26.8007C148.54 27.1344 148.828 27.4123 149.177 27.6059C149.525 27.7996 149.922 27.9021 150.326 27.9031H173.935C174.029 27.9027 174.121 27.8781 174.201 27.8318C174.282 27.7855 174.348 27.7194 174.392 27.6405L176.233 24.4228C176.252 24.3878 176.261 24.3488 176.26 24.3095C176.258 24.2702 176.246 24.2319 176.225 24.1983C176.203 24.1647 176.173 24.1369 176.137 24.1176C176.101 24.0983 176.06 24.088 176.019 24.0879L157.118 24.0353C157.068 24.0351 157.019 24.0223 156.975 23.9983C156.932 23.9742 156.897 23.9398 156.872 23.8985C156.847 23.8571 156.835 23.8104 156.835 23.7629C156.836 23.7155 156.85 23.669 156.875 23.6282L158.066 21.7567C158.111 21.6829 158.176 21.6216 158.253 21.579C158.331 21.5363 158.419 21.5138 158.509 21.5137H177.466C177.543 21.5126 177.618 21.4927 177.685 21.4559C177.752 21.4191 177.807 21.3667 177.846 21.3036L179.84 18.0203C179.863 17.9804 179.874 17.9355 179.873 17.8902C179.873 17.8448 179.859 17.8005 179.835 17.7615C179.81 17.7225 179.776 17.6901 179.734 17.6676C179.693 17.645 179.646 17.6331 179.598 17.6328L160.863 17.6854C160.817 17.6852 160.772 17.6734 160.733 17.651C160.693 17.6287 160.661 17.5968 160.639 17.5585C160.617 17.5202 160.606 17.4771 160.608 17.4335C160.61 17.39 160.624 17.3477 160.649 17.3111L161.694 15.781C161.73 15.7319 161.777 15.6914 161.833 15.6629C161.888 15.6344 161.95 15.6186 162.012 15.6169H180.706C180.886 15.6166 181.063 15.5692 181.217 15.4801C181.371 15.3909 181.496 15.2633 181.578 15.1112L182.928 12.629C182.974 12.5316 182.995 12.425 182.988 12.3183C182.981 12.2117 182.947 12.1082 182.888 12.017C182.829 11.9258 182.748 11.8495 182.651 11.7948C182.555 11.7401 182.445 11.7086 182.333 11.7031H157.665C157.37 11.7067 157.081 11.7808 156.824 11.9185C156.568 12.0563 156.352 12.2532 156.197 12.4911Z" fill="#0971CE"/>
<path d="M85.558 27.378L94.6069 12.097C94.6787 11.9834 94.7795 11.8889 94.8999 11.8224C95.0203 11.7558 95.1564 11.7193 95.2955 11.7163H99.0349C99.1496 11.7168 99.2629 11.7404 99.3674 11.7857C99.4718 11.8309 99.565 11.8968 99.6409 11.9788L109.034 22.1268C109.084 22.1811 109.148 22.2231 109.218 22.2494C109.289 22.2756 109.366 22.2853 109.441 22.2776C109.517 22.2698 109.589 22.245 109.653 22.205C109.716 22.1651 109.768 22.1112 109.805 22.048L115.487 12.097C115.553 11.9779 115.652 11.8782 115.774 11.8088C115.895 11.7394 116.034 11.7029 116.175 11.7031H122.711C122.799 11.7026 122.886 11.7241 122.962 11.7656C123.039 11.8072 123.103 11.8672 123.148 11.9397C123.192 12.0122 123.216 12.0946 123.217 12.1787C123.217 12.2627 123.195 12.3455 123.151 12.4186L113.889 27.5552C113.83 27.661 113.742 27.7493 113.634 27.8107C113.525 27.872 113.402 27.904 113.276 27.9031H106.479C106.377 27.9042 106.276 27.8836 106.183 27.8427C106.09 27.8018 106.008 27.7417 105.942 27.6668L98.236 19.3174C98.1961 19.2756 98.1466 19.2433 98.0912 19.2232C98.0359 19.203 97.9763 19.1955 97.9174 19.2012C97.8585 19.207 97.8018 19.2258 97.7518 19.2563C97.7019 19.2867 97.6602 19.3279 97.63 19.3764L92.7199 27.6208C92.6713 27.7039 92.6004 27.7731 92.5145 27.8215C92.4286 27.87 92.3308 27.8958 92.231 27.8965H85.8748C85.8119 27.8945 85.7506 27.8773 85.6967 27.8465C85.6427 27.8157 85.5978 27.7724 85.5661 27.7206C85.5345 27.6688 85.5171 27.6102 85.5157 27.5503C85.5143 27.4904 85.5288 27.4311 85.558 27.378Z" fill="#0971CE"/>
<path d="M115.906 27.3779L124.949 12.097C125.021 11.9838 125.122 11.8897 125.242 11.8232C125.363 11.7567 125.499 11.7199 125.638 11.7163H129.384C129.498 11.7173 129.61 11.7412 129.713 11.7864C129.816 11.8317 129.908 11.8973 129.983 11.9788L139.391 22.0939C139.441 22.1482 139.504 22.1902 139.575 22.2165C139.646 22.2427 139.722 22.2524 139.798 22.2447C139.873 22.2369 139.946 22.2121 140.009 22.1721C140.073 22.1322 140.125 22.0783 140.162 22.0151L145.83 12.097C145.896 11.9779 145.996 11.8782 146.117 11.8088C146.238 11.7394 146.377 11.7029 146.519 11.7031H153.054C153.143 11.7026 153.229 11.7241 153.306 11.7656C153.383 11.8072 153.447 11.8672 153.491 11.9397C153.536 12.0122 153.56 12.0946 153.561 12.1787C153.561 12.2627 153.539 12.3455 153.495 12.4186L144.232 27.5551C144.173 27.6609 144.085 27.7492 143.977 27.8106C143.869 27.8719 143.745 27.9039 143.619 27.903H136.829C136.725 27.9051 136.623 27.8849 136.528 27.844C136.434 27.8031 136.351 27.7425 136.285 27.6667L128.578 19.3173C128.539 19.2756 128.49 19.2433 128.435 19.2231C128.38 19.2029 128.321 19.1954 128.263 19.2011C128.204 19.2069 128.148 19.2258 128.099 19.2562C128.05 19.2867 128.009 19.3279 127.979 19.3764L123.062 27.6207C123.014 27.7047 122.944 27.7747 122.858 27.8233C122.771 27.8718 122.673 27.8971 122.573 27.8964H116.216C116.153 27.8951 116.092 27.8782 116.037 27.8474C115.983 27.8166 115.938 27.773 115.907 27.7208C115.876 27.6686 115.86 27.6095 115.859 27.5494C115.859 27.4893 115.875 27.4302 115.906 27.3779Z" fill="#0971CE"/>
<path d="M183.957 15.2928L185.877 12.0176C185.937 11.9238 186.02 11.8459 186.118 11.7909C186.217 11.736 186.328 11.7058 186.443 11.7031H239.789C239.826 11.7045 239.862 11.7149 239.893 11.7333C239.925 11.7516 239.951 11.7774 239.969 11.8082C239.988 11.8389 239.998 11.8737 239.998 11.9092C239.999 11.9446 239.99 11.9797 239.973 12.011L237.93 15.6466C237.897 15.7009 237.851 15.7463 237.795 15.7784C237.739 15.8105 237.675 15.8283 237.61 15.83H227.703C227.588 15.8322 227.474 15.8629 227.374 15.9191C227.274 15.9752 227.191 16.055 227.131 16.1509L220.18 27.5489C220.109 27.6609 220.009 27.7528 219.889 27.815C219.77 27.8772 219.635 27.9075 219.499 27.9026H212.69C212.623 27.9011 212.557 27.8832 212.499 27.8504C212.441 27.8177 212.393 27.7712 212.359 27.7154C212.325 27.6597 212.306 27.5964 212.304 27.5318C212.303 27.4671 212.318 27.4031 212.35 27.3458L218.641 16.354C218.671 16.3019 218.686 16.2433 218.685 16.1839C218.683 16.1246 218.666 16.0665 218.634 16.0155C218.603 15.9646 218.558 15.9224 218.504 15.8933C218.45 15.8642 218.389 15.8492 218.328 15.8496L202.579 15.902C202.469 15.9016 202.36 15.9293 202.265 15.9822C202.169 16.0351 202.09 16.1114 202.035 16.2033L195.273 27.503C195.199 27.624 195.094 27.7244 194.967 27.7944C194.841 27.8644 194.698 27.9017 194.552 27.9026H188.281C188.195 27.9036 188.111 27.8826 188.036 27.8418C187.962 27.8011 187.9 27.742 187.857 27.6707C187.814 27.5994 187.792 27.5184 187.792 27.436C187.792 27.3536 187.815 27.2727 187.859 27.2017L194.436 16.3344C194.466 16.2847 194.481 16.2284 194.482 16.1711C194.482 16.1138 194.466 16.0574 194.436 16.0077C194.407 15.958 194.364 15.9166 194.313 15.8877C194.261 15.8588 194.203 15.8434 194.143 15.8431H184.284C184.218 15.8425 184.152 15.8251 184.095 15.7927C184.037 15.7603 183.99 15.7139 183.956 15.6583C183.923 15.6026 183.906 15.5395 183.906 15.4754C183.906 15.4113 183.924 15.3483 183.957 15.2928Z" fill="#0971CE"/>
</g>
<defs>
<clipPath id="clip0_965_21869">
<rect width="240" height="36" fill="white"/>
</clipPath>
</defs>
</svg>
