<svg width="105" height="30" viewBox="0 0 105 30" fill="none" xmlns="http://www.w3.org/2000/svg">
<path d="M69.9998 17.777V16.4495C70.0015 16.3929 69.9813 16.3379 69.9436 16.2965C69.9058 16.2552 69.8536 16.2309 69.7984 16.2289H69.4284C69.155 16.2289 68.9321 15.9854 68.9321 15.6844V11.8842C68.9321 9.19832 67.7474 7.26317 65.1112 7.26317C63.7606 7.26317 62.3143 7.96431 61.926 9.03239V7.27299C61.926 7.09116 61.7506 6.9556 61.6043 7.03927C61.3218 7.20428 58.502 7.19212 58.3184 7.27299C58.299 7.28188 58.2827 7.29642 58.2713 7.31479C58.26 7.33316 58.2542 7.35455 58.2546 7.37629V8.92207C58.2546 9.00574 58.3316 9.03566 58.4022 9.03192C58.4022 9.03192 59.3218 9.05108 59.3218 9.71343V15.6867C59.3218 15.9873 59.0994 16.2313 58.8256 16.2313H57.1678C56.8944 16.2313 56.6715 15.9877 56.6715 15.6867V7.27299C56.6715 7.09116 56.502 6.94579 56.3498 7.01964C56.0163 7.17716 53.2475 7.19306 53.0639 7.27299C53.0446 7.28188 53.0282 7.29642 53.0168 7.31479C53.0055 7.33316 52.9997 7.35455 53.0001 7.37629V8.92207C53.0001 9.00574 53.0584 9.03192 53.1477 9.03192C53.1477 9.03192 54.0678 9.03192 54.0678 9.6966V15.6867C54.0678 15.9873 53.8454 16.2313 53.5715 16.2313H53.2015C53.1463 16.2332 53.0941 16.2575 53.0564 16.2989C53.0186 16.3402 52.9984 16.3952 53.0001 16.4519V17.7794C52.9984 17.836 53.0186 17.891 53.0564 17.9324C53.0941 17.9737 53.1463 17.998 53.2015 18H62.7914C62.8466 17.998 62.8988 17.9737 62.9365 17.9324C62.9743 17.891 62.9945 17.836 62.9928 17.7794V16.4519C62.9945 16.3952 62.9743 16.3402 62.9365 16.2989C62.8988 16.2575 62.8466 16.2332 62.7914 16.2313H62.4213C62.1479 16.2313 61.9251 15.9877 61.9251 15.6867C61.9251 15.6867 61.9497 13.4846 61.9497 12.5671C61.9497 11.2115 62.2231 9.03426 64.1511 9.03426C66.0791 9.03426 66.3525 11.2134 66.3525 12.5671C66.3525 13.0312 66.3279 15.6867 66.3279 15.6867C66.3279 15.9873 66.1056 16.2313 65.8317 16.2313H65.4617C65.4065 16.2332 65.3543 16.2575 65.3165 16.2989C65.2788 16.3402 65.2585 16.3952 65.2603 16.4519V17.7794C65.2585 17.836 65.2788 17.891 65.3165 17.9324C65.3543 17.9737 65.4065 17.998 65.4617 18H69.7979C69.8255 17.9991 69.8526 17.9926 69.8778 17.9809C69.9029 17.9692 69.9255 17.9524 69.9442 17.9317C69.963 17.911 69.9776 17.8866 69.9871 17.8601C69.9967 17.8335 70.001 17.8053 69.9998 17.777Z" fill="white" fill-opacity="0.4"/>
<path d="M47.0384 7.67958C45.1658 7.67958 43.8693 9.38018 43.8693 9.38018V2.15859C43.8693 1.97887 43.7032 1.9865 43.5303 2.01661C42.6761 2.16533 40.2613 2.20217 40.0678 2.27855C40.0474 2.2871 40.0302 2.30108 40.0182 2.31873C40.0063 2.33639 40.0001 2.35695 40.0006 2.37785V3.86458C40.0006 3.945 40.0726 3.97016 40.1562 3.97016C40.1562 3.97016 41.1251 3.97016 41.1251 4.60727V15.7764C41.1251 16.0653 40.8908 16.2998 40.6022 16.2998H40.2123C40.1542 16.3017 40.0992 16.3251 40.0594 16.3649C40.0196 16.4046 39.9983 16.4575 40.0001 16.5119V17.7879C39.9983 17.8424 40.0196 17.8952 40.0594 17.935C40.0992 17.9747 40.1542 17.9981 40.2123 18H43.5442C43.6332 17.9972 43.7174 17.9614 43.7782 17.9006C43.8391 17.8398 43.8717 17.7589 43.8688 17.6756V17.123C44.7149 17.858 45.7986 17.9919 46.9798 17.9919C49.6851 17.9919 52 16.0536 52 12.8227C52 9.5918 50.0577 7.67958 47.0384 7.67958ZM46.0598 16.2976C44.8988 16.2976 43.8712 15.6636 43.8712 14.7947V12.5316C43.8712 10.6953 44.9045 9.37973 46.1631 9.37973C47.8437 9.37973 48.5207 10.9972 48.5207 13.0743C48.5207 14.6639 47.7294 16.2976 46.0598 16.2976Z" fill="white" fill-opacity="0.4"/>
<path d="M16.7674 0H11.6636C11.6 0.00214291 11.5398 0.0285656 11.4963 0.0734751C11.4528 0.118385 11.4295 0.178116 11.4316 0.239574L11.4254 1.48445C11.4234 1.5459 11.4467 1.60564 11.4902 1.65055C11.5337 1.69546 11.5938 1.72188 11.6575 1.72402H11.9613C12.277 1.72402 12.5331 1.98824 12.5331 2.31451L12.5393 7.52034H4.46544L4.45929 2.31406C4.45929 1.98824 4.71543 1.72356 5.0311 1.72356H5.33118C5.39482 1.72142 5.45498 1.695 5.49848 1.65009C5.54198 1.60518 5.56526 1.54545 5.56322 1.48399L5.56936 0.239118C5.57127 0.177737 5.54794 0.118123 5.50445 0.0733133C5.46097 0.0285032 5.40088 0.00214381 5.33733 0L0.236409 0C0.173103 0.00261255 0.113422 0.02924 0.0703308 0.0740978C0.0272391 0.118956 0.0042175 0.17842 0.00626705 0.239574L0.000123647 1.48399C-0.00191669 1.54545 0.0213629 1.60518 0.0648586 1.65009C0.108354 1.695 0.168517 1.72142 0.232155 1.72356H0.540271C0.855948 1.72356 1.11208 1.98778 1.11208 2.31406L1.11822 15.6846C1.11822 16.0104 0.862091 16.2751 0.546414 16.2751H0.236409C0.17277 16.2772 0.112607 16.3036 0.0691117 16.3485C0.025616 16.3935 0.00233644 16.4532 0.00437678 16.5146V17.7604C0.00246395 17.8218 0.0258005 17.8814 0.0692827 17.9262C0.112765 17.971 0.172854 17.9974 0.236409 17.9995H5.33544C5.39908 17.9974 5.45924 17.971 5.50273 17.9261C5.54623 17.8812 5.56951 17.8214 5.56747 17.76V16.5124C5.56951 16.4509 5.54623 16.3912 5.50273 16.3463C5.45924 16.3013 5.39908 16.2749 5.33544 16.2728H5.03536C4.71968 16.2728 4.46355 16.0086 4.46355 15.6823V9.24802H12.5398V15.6823C12.5398 16.0081 12.2836 16.2728 11.968 16.2728H11.6641C11.6005 16.2749 11.5403 16.3013 11.4968 16.3463C11.4533 16.3912 11.43 16.4509 11.4321 16.5124V17.7604C11.43 17.8219 11.4533 17.8816 11.4968 17.9265C11.5403 17.9714 11.6005 17.9979 11.6641 18H16.7678C16.8315 17.9979 16.8916 17.9714 16.9351 17.9265C16.9786 17.8816 17.0019 17.8219 16.9999 17.7604V16.5124C17.0019 16.4509 16.9786 16.3912 16.9351 16.3463C16.8916 16.3013 16.8315 16.2749 16.7678 16.2728H16.4611C16.1455 16.2728 15.8893 16.0086 15.8893 15.6823L15.8832 2.31178C15.8832 1.98596 16.1393 1.72128 16.455 1.72128H16.7617C16.8253 1.71914 16.8855 1.69272 16.929 1.64781C16.9725 1.6029 16.9958 1.54317 16.9937 1.48171L16.9999 0.236836C17.0012 0.175769 16.9775 0.116674 16.934 0.0723464C16.8904 0.028019 16.8306 0.00202752 16.7674 0V0Z" fill="white" fill-opacity="0.4"/>
<path d="M29.8251 16.2274H29.2182C28.9515 16.2274 28.8765 16.0401 28.8765 15.8447L28.8836 7.48178C28.8836 7.28175 28.8722 7.25037 28.6576 7.25037C28.0751 7.25037 26.9779 7.17542 26.4919 7.01615C26.4537 7.0018 26.4125 6.9969 26.3719 7.0019C26.3313 7.0069 26.2926 7.02163 26.2593 7.0448C26.2259 7.06797 26.1989 7.09885 26.1806 7.13471C26.1623 7.17057 26.1533 7.2103 26.1545 7.25037V9.01496C25.8678 8.40881 24.794 7.24194 23.3278 7.24194C20.4802 7.24194 18 9.79771 18 13.2154C18 16.6331 20.1576 18 23.0426 18C24.8862 18 26.155 17.0856 26.155 17.0856C26.155 17.0856 26.2625 18 27.2001 18H29.8284C29.8514 17.9995 29.8741 17.9946 29.8952 17.9855C29.9163 17.9764 29.9354 17.9633 29.9513 17.947C29.9672 17.9307 29.9797 17.9115 29.9881 17.8904C29.9964 17.8694 30.0005 17.8469 30 17.8243V16.4031C30.0005 16.3803 29.9963 16.3575 29.9878 16.3363C29.9792 16.315 29.9664 16.2956 29.9501 16.2793C29.9338 16.2629 29.9144 16.2499 29.8929 16.241C29.8714 16.2321 29.8484 16.2275 29.8251 16.2274ZM23.7082 16.2274C22.2617 16.2274 21.4656 14.6118 21.4656 12.8674C21.4656 10.9679 22.4839 9.01543 23.8129 9.01543C25.2274 9.01543 26.1602 9.92513 26.1602 12.6224C26.1597 13.9743 25.8133 16.2274 23.7063 16.2274H23.7082Z" fill="white" fill-opacity="0.4"/>
<path d="M89.5189 7C86.478 7 84 9.44195 84 12.485C84 15.5281 86.2646 18 89.5189 18C91.2695 18 92.8029 17.1676 93.7275 16.0337C93.7609 15.9916 93.7784 15.9386 93.7768 15.8843C93.7752 15.8301 93.7546 15.7782 93.7188 15.7383C93.7188 15.7383 92.2465 14.8188 92.2351 14.8104C92.1974 14.7866 92.1526 14.7776 92.1089 14.7852C92.0653 14.7928 92.0258 14.8164 91.9979 14.8516C91.7603 15.1793 91.0236 16.2378 89.4998 16.2275C87.2849 16.2275 87.3036 13.5351 87.3036 13.5351H94.7478C94.8127 13.5363 94.8754 13.5113 94.9226 13.4655C94.9697 13.4197 94.9975 13.3568 95 13.2903C95 8.97331 91.8478 7 89.5189 7ZM87.3036 11.7125C87.3036 11.7125 87.3004 9.02247 89.4998 9.02247C91.6991 9.02247 91.7178 11.7125 91.7178 11.7125H87.3036Z" fill="white" fill-opacity="0.4"/>
<path d="M54.6091 5.8525C55.6606 5.4364 56.2405 4.26953 55.9047 3.24673C55.569 2.22393 54.4442 1.73177 53.391 2.14787C52.3378 2.56397 51.7597 3.73084 52.0954 4.75364C52.4311 5.77644 53.5576 6.26771 54.6091 5.8525Z" fill="white" fill-opacity="0.4"/>
<path d="M38.5863 7.30023C38.5638 7.29414 38.5404 7.28806 38.5179 7.28244C37.5752 7.11438 35.9621 7.69019 34.6987 9.0183V7.25669C34.6987 7.07459 34.5257 6.94585 34.3748 7.02262C34.0789 7.1757 31.2515 7.17617 31.0666 7.25669C31.0471 7.2656 31.0307 7.28016 31.0193 7.29856C31.0078 7.31696 31.002 7.33838 31.0024 7.36015L31.0088 8.90969C31.0088 8.99348 31.0694 9.0197 31.1575 9.0197C31.1575 9.0197 32.075 9.0197 32.075 9.68352V15.6832C32.075 15.9842 31.8511 16.2286 31.5754 16.2286H31.2029C31.1473 16.2305 31.0948 16.2549 31.0567 16.2963C31.0187 16.3377 30.9984 16.3928 31.0001 16.4495V17.779C30.9984 17.8358 31.0187 17.8909 31.0567 17.9323C31.0948 17.9737 31.1473 17.998 31.2029 18H35.5685C35.6241 17.998 35.6766 17.9737 35.7147 17.9323C35.7527 17.8909 35.773 17.8358 35.7713 17.779V16.4495C35.773 16.3928 35.7527 16.3377 35.7147 16.2963C35.6766 16.2549 35.6241 16.2305 35.5685 16.2286H35.196C34.9207 16.2286 34.6964 15.9847 34.6964 15.6832V11.6984C34.6964 9.73221 36.0544 9.0183 36.3801 9.0183C36.3801 10.1807 37.1907 10.9377 38.1908 10.9377C38.6359 10.939 39.0658 10.7724 39.3978 10.4698C39.7297 10.1673 39.9403 9.75015 39.9891 9.2987C40.0379 8.84725 39.9214 8.39334 39.662 8.02425C39.4026 7.65516 39.0187 7.39696 38.584 7.29929L38.5863 7.30023Z" fill="white" fill-opacity="0.4"/>
<path d="M80.225 8.26492C80.4617 8.09454 80.9596 7.9069 81.2591 8.34943C81.5585 8.79197 81.9858 9.02732 82.5128 9.02732C82.9072 9.02732 83.2855 8.87304 83.5644 8.59842C83.8433 8.32379 84 7.95133 84 7.56296C84 6.99638 83.5884 6 82.0426 6C80.212 6 78.5818 8.28264 78.459 8.22948C77.7002 7.90407 76.8803 7.73952 76.0526 7.74651C72.9684 7.74651 70.4692 10.0601 70.4692 12.9492C70.4692 14.7735 71.4664 16.365 72.9771 17.2937C72.4303 17.5118 72.0312 18.0952 72.0312 18.7254C72.0312 19.3555 72.6366 19.9294 74.0874 20.2447C78.4904 21.2011 79.9476 23.0508 79.9476 24.9145C79.9476 27.3907 78.4461 28.2808 76.2123 28.2808C73.9785 28.2808 72.4769 27.1512 72.4769 24.9145C72.4769 22.3429 74.1072 22.0158 73.799 21.7027C73.4907 21.3897 69 21.5628 69 24.9145C69 28.0295 72.1936 30 76.21 30C79.9569 30 83.425 28.5102 83.425 24.9145C83.425 20.4119 75.6766 19.3551 74.7445 19.0957C74.0145 18.8926 74.2369 17.9044 74.8404 18.0593C75.2244 18.1656 75.6364 18.1806 76.0522 18.1806C79.1364 18.1806 81.6356 15.8384 81.6356 12.9488C81.6356 11.5599 81.038 10.2781 80.0925 9.339C79.6505 8.88147 79.9887 8.43667 80.225 8.26492ZM76.0526 16.4604C74.7288 16.4604 73.8188 15.2591 73.8188 13.0106C73.8188 10.762 74.7288 9.46667 76.0526 9.46667C77.3765 9.46667 78.2865 10.7638 78.2865 13.0106C78.2865 15.2573 77.3765 16.4604 76.0526 16.4604Z" fill="white" fill-opacity="0.4"/>
<path d="M103.586 7.3025C103.564 7.29642 103.54 7.29034 103.518 7.28472C102.575 7.11669 100.962 7.69238 99.6987 9.02021V7.25664C99.6987 7.07457 99.5257 6.94586 99.3748 7.02262C99.0789 7.17567 96.2515 7.17613 96.0666 7.25664C96.0472 7.26554 96.0307 7.2801 96.0193 7.2985C96.0078 7.31689 96.002 7.3383 96.0024 7.36007L96.0088 8.90975C96.0088 8.99353 96.0694 9.01974 96.1575 9.01974C96.1575 9.01974 97.075 9.01974 97.075 9.68342V15.6837C97.075 15.9846 96.8511 16.2289 96.5754 16.2289H96.2029C96.1473 16.2309 96.0948 16.2552 96.0568 16.2967C96.0187 16.3381 95.9984 16.3932 96.0001 16.4499V17.7791C95.9984 17.8358 96.0187 17.8909 96.0568 17.9323C96.0948 17.9737 96.1473 17.998 96.2029 18H100.569C100.624 17.998 100.677 17.9737 100.715 17.9323C100.753 17.8909 100.773 17.8358 100.771 17.7791V16.4499C100.773 16.3932 100.753 16.3381 100.715 16.2967C100.677 16.2552 100.624 16.2309 100.569 16.2289H100.196C99.9208 16.2289 99.6964 15.9851 99.6964 15.6837V11.6997C99.6964 9.73397 101.054 9.02021 101.38 9.02021C101.38 10.1823 102.191 10.9392 103.191 10.9392C103.636 10.9405 104.066 10.7739 104.398 10.4714C104.73 10.1689 104.94 9.7519 104.989 9.30055C105.038 8.8492 104.921 8.39538 104.662 8.02637C104.403 7.65736 104.019 7.39921 103.584 7.30157L103.586 7.3025Z" fill="white" fill-opacity="0.4"/>
<path d="M34.76 23.3898C34.76 22.568 34.1201 22 33.1809 22H31V25.9995H32.0585V24.7522H32.7043C33.0631 25.19 33.392 25.5895 33.7523 26H35C34.6472 25.5731 34.2464 25.0914 33.8696 24.6595C34.4131 24.4458 34.76 23.9696 34.76 23.3898ZM33.0631 24.0025H32.0565V22.7492H33.0611C33.6176 22.7492 33.7009 23.1816 33.7009 23.3884C33.7014 23.8053 33.3546 24.0025 33.0611 24.0025H33.0631Z" fill="white" fill-opacity="0.4"/>
<path d="M40 22H38.6637L37.0472 23.6692V22H36V26H37.0472V25.085L37.6051 24.502L38.7484 26H40L38.2894 23.7875L40 22Z" fill="white" fill-opacity="0.4"/>
<path d="M42 26H45V25.1777H42.9544V24.4335H44.7625V23.6053H42.9544V22.8227H45V22H42V26Z" fill="white" fill-opacity="0.4"/>
<path d="M47 22.8227H48.4545V26H49.5509V22.8227H51V22H47V22.8227Z" fill="white" fill-opacity="0.4"/>
<path d="M54 22H53V26H54V22Z" fill="white" fill-opacity="0.4"/>
<path d="M58.9859 24.3308L56.9761 22H56V26H57.0141V23.7162L58.9859 26H60V22H58.9859V24.3308Z" fill="white" fill-opacity="0.4"/>
<path d="M21.8554 22L20.4997 23.5555L19.1446 22H18V26H19.1508V23.5692L20.4997 25.1028L21.8492 23.5692V26H23V22H21.8554Z" fill="white" fill-opacity="0.4"/>
<path d="M26.7957 22H26.2043L24 26H25.1312L25.4875 25.3124H27.5163L27.8853 26H29L26.7957 22ZM25.9053 24.4833L26.4967 23.3108L27.0947 24.4833H25.9053Z" fill="white" fill-opacity="0.4"/>
<path d="M64.9849 23.6986H62.9984V24.5776H63.942C63.7905 24.8744 63.4074 25.1 63.0229 25.1C62.7386 25.0968 62.4667 24.98 62.2652 24.7743C62.0636 24.5687 61.9484 24.2905 61.944 23.9991C61.944 23.4055 62.438 22.9032 63.0229 22.9032C63.3081 22.9032 63.5994 23.0539 63.8248 23.3142L64.6467 22.8155C64.4553 22.5615 64.2096 22.3558 63.9285 22.2144C63.6474 22.073 63.3383 21.9997 63.0252 22C61.9083 22 61 22.8973 61 24C61 25.1027 61.9083 26 63.0252 26C64.0654 26 64.9105 25.2694 64.9911 24.3032V24.2881C64.9955 24.2169 65 24.1511 65 24.0854C65 23.9977 64.9942 23.8708 64.9902 23.7836L64.9849 23.6986Z" fill="white" fill-opacity="0.4"/>
</svg>
