<svg width="910" height="400" viewBox="0 0 910 400" fill="none" xmlns="http://www.w3.org/2000/svg">
<rect x="60" width="387" height="56" rx="5" fill="#F6F6F6"/>
<path d="M79.836 33V29.248L80.158 30.116L75.944 23.2H77.442L80.984 29.038H80.172L83.728 23.2H85.114L80.914 30.116L81.222 29.248V33H79.836ZM88.6825 33.084C87.9358 33.084 87.2731 32.9207 86.6945 32.594C86.1158 32.2673 85.6585 31.8193 85.3225 31.25C84.9865 30.6713 84.8185 30.018 84.8185 29.29C84.8185 28.5527 84.9865 27.8993 85.3225 27.33C85.6585 26.7607 86.1158 26.3173 86.6945 26C87.2731 25.6733 87.9358 25.51 88.6825 25.51C89.4198 25.51 90.0778 25.6733 90.6565 26C91.2445 26.3173 91.7018 26.7607 92.0285 27.33C92.3645 27.89 92.5325 28.5433 92.5325 29.29C92.5325 30.0273 92.3645 30.6807 92.0285 31.25C91.7018 31.8193 91.2445 32.2673 90.6565 32.594C90.0778 32.9207 89.4198 33.084 88.6825 33.084ZM88.6825 31.908C89.1585 31.908 89.5831 31.8007 89.9565 31.586C90.3391 31.3713 90.6378 31.068 90.8525 30.676C91.0671 30.2747 91.1745 29.8127 91.1745 29.29C91.1745 28.758 91.0671 28.3007 90.8525 27.918C90.6378 27.526 90.3391 27.2227 89.9565 27.008C89.5831 26.7933 89.1585 26.686 88.6825 26.686C88.2065 26.686 87.7818 26.7933 87.4085 27.008C87.0351 27.2227 86.7365 27.526 86.5125 27.918C86.2885 28.3007 86.1765 28.758 86.1765 29.29C86.1765 29.8127 86.2885 30.2747 86.5125 30.676C86.7365 31.068 87.0351 31.3713 87.4085 31.586C87.7818 31.8007 88.2065 31.908 88.6825 31.908ZM97.5132 33.084C96.8785 33.084 96.3185 32.9673 95.8332 32.734C95.3572 32.5007 94.9839 32.146 94.7132 31.67C94.4519 31.1847 94.3212 30.578 94.3212 29.85V25.58H95.6652V29.696C95.6652 30.424 95.8379 30.97 96.1832 31.334C96.5379 31.698 97.0325 31.88 97.6672 31.88C98.1339 31.88 98.5399 31.7867 98.8852 31.6C99.2305 31.404 99.4965 31.124 99.6832 30.76C99.8699 30.3867 99.9632 29.9387 99.9632 29.416V25.58H101.307V33H100.033V30.998L100.243 31.53C100.001 32.0247 99.6365 32.4073 99.1512 32.678C98.6659 32.9487 98.1199 33.084 97.5132 33.084ZM103.866 33V25.58H105.154V27.596L105.028 27.092C105.233 26.5787 105.578 26.1867 106.064 25.916C106.549 25.6453 107.146 25.51 107.856 25.51V26.812C107.8 26.8027 107.744 26.798 107.688 26.798C107.641 26.798 107.594 26.798 107.548 26.798C106.829 26.798 106.26 27.0127 105.84 27.442C105.42 27.8713 105.21 28.492 105.21 29.304V33H103.866ZM113.564 33V23.2H114.712L121.194 31.25H120.592V23.2H121.992V33H120.844L114.362 24.95H114.964V33H113.564ZM129.335 33V31.432L129.265 31.138V28.464C129.265 27.8947 129.097 27.456 128.761 27.148C128.434 26.8307 127.94 26.672 127.277 26.672C126.838 26.672 126.409 26.7467 125.989 26.896C125.569 27.036 125.214 27.2273 124.925 27.47L124.365 26.462C124.748 26.154 125.205 25.9207 125.737 25.762C126.278 25.594 126.843 25.51 127.431 25.51C128.448 25.51 129.232 25.7573 129.783 26.252C130.334 26.7467 130.609 27.5027 130.609 28.52V33H129.335ZM126.899 33.084C126.348 33.084 125.863 32.9907 125.443 32.804C125.032 32.6173 124.715 32.3607 124.491 32.034C124.267 31.698 124.155 31.32 124.155 30.9C124.155 30.4987 124.248 30.1347 124.435 29.808C124.631 29.4813 124.944 29.22 125.373 29.024C125.812 28.828 126.4 28.73 127.137 28.73H129.489V29.696H127.193C126.521 29.696 126.068 29.808 125.835 30.032C125.602 30.256 125.485 30.5267 125.485 30.844C125.485 31.208 125.63 31.502 125.919 31.726C126.208 31.9407 126.61 32.048 127.123 32.048C127.627 32.048 128.066 31.936 128.439 31.712C128.822 31.488 129.097 31.1613 129.265 30.732L129.531 31.656C129.354 32.0947 129.041 32.4447 128.593 32.706C128.145 32.958 127.58 33.084 126.899 33.084ZM142.378 25.51C142.976 25.51 143.503 25.6267 143.96 25.86C144.418 26.0933 144.772 26.448 145.024 26.924C145.286 27.4 145.416 28.002 145.416 28.73V33H144.072V28.884C144.072 28.1653 143.904 27.624 143.568 27.26C143.232 26.896 142.761 26.714 142.154 26.714C141.706 26.714 141.314 26.8073 140.978 26.994C140.642 27.1807 140.381 27.456 140.194 27.82C140.017 28.184 139.928 28.6367 139.928 29.178V33H138.584V28.884C138.584 28.1653 138.416 27.624 138.08 27.26C137.754 26.896 137.282 26.714 136.666 26.714C136.228 26.714 135.84 26.8073 135.504 26.994C135.168 27.1807 134.907 27.456 134.72 27.82C134.534 28.184 134.44 28.6367 134.44 29.178V33H133.096V25.58H134.384V27.554L134.174 27.05C134.408 26.5647 134.767 26.1867 135.252 25.916C135.738 25.6453 136.302 25.51 136.946 25.51C137.656 25.51 138.267 25.6873 138.78 26.042C139.294 26.3873 139.63 26.9147 139.788 27.624L139.242 27.4C139.466 26.8307 139.858 26.3733 140.418 26.028C140.978 25.6827 141.632 25.51 142.378 25.51ZM151.193 33.084C150.4 33.084 149.7 32.9207 149.093 32.594C148.496 32.2673 148.029 31.8193 147.693 31.25C147.367 30.6807 147.203 30.0273 147.203 29.29C147.203 28.5527 147.362 27.8993 147.679 27.33C148.006 26.7607 148.449 26.3173 149.009 26C149.579 25.6733 150.218 25.51 150.927 25.51C151.646 25.51 152.281 25.6687 152.831 25.986C153.382 26.3033 153.811 26.7513 154.119 27.33C154.437 27.8993 154.595 28.5667 154.595 29.332C154.595 29.388 154.591 29.4533 154.581 29.528C154.581 29.6027 154.577 29.6727 154.567 29.738H148.253V28.772H153.867L153.321 29.108C153.331 28.632 153.233 28.2073 153.027 27.834C152.822 27.4607 152.537 27.1713 152.173 26.966C151.819 26.7513 151.403 26.644 150.927 26.644C150.461 26.644 150.045 26.7513 149.681 26.966C149.317 27.1713 149.033 27.4653 148.827 27.848C148.622 28.2213 148.519 28.6507 148.519 29.136V29.36C148.519 29.8547 148.631 30.298 148.855 30.69C149.089 31.0727 149.411 31.3713 149.821 31.586C150.232 31.8007 150.703 31.908 151.235 31.908C151.674 31.908 152.071 31.8333 152.425 31.684C152.789 31.5347 153.107 31.3107 153.377 31.012L154.119 31.88C153.783 32.272 153.363 32.5707 152.859 32.776C152.365 32.9813 151.809 33.084 151.193 33.084Z" fill="#051E39" fill-opacity="0.6"/>
<rect x="60.5" y="0.5" width="386" height="55" rx="4.5" stroke="#051E39" stroke-opacity="0.2"/>
<rect x="463" width="387" height="56" rx="5" fill="#F6F6F6"/>
<path d="M482.836 33V29.248L483.158 30.116L478.944 23.2H480.442L483.984 29.038H483.172L486.728 23.2H488.114L483.914 30.116L484.222 29.248V33H482.836ZM491.682 33.084C490.936 33.084 490.273 32.9207 489.694 32.594C489.116 32.2673 488.658 31.8193 488.322 31.25C487.986 30.6713 487.818 30.018 487.818 29.29C487.818 28.5527 487.986 27.8993 488.322 27.33C488.658 26.7607 489.116 26.3173 489.694 26C490.273 25.6733 490.936 25.51 491.682 25.51C492.42 25.51 493.078 25.6733 493.656 26C494.244 26.3173 494.702 26.7607 495.028 27.33C495.364 27.89 495.532 28.5433 495.532 29.29C495.532 30.0273 495.364 30.6807 495.028 31.25C494.702 31.8193 494.244 32.2673 493.656 32.594C493.078 32.9207 492.42 33.084 491.682 33.084ZM491.682 31.908C492.158 31.908 492.583 31.8007 492.956 31.586C493.339 31.3713 493.638 31.068 493.852 30.676C494.067 30.2747 494.174 29.8127 494.174 29.29C494.174 28.758 494.067 28.3007 493.852 27.918C493.638 27.526 493.339 27.2227 492.956 27.008C492.583 26.7933 492.158 26.686 491.682 26.686C491.206 26.686 490.782 26.7933 490.408 27.008C490.035 27.2227 489.736 27.526 489.512 27.918C489.288 28.3007 489.176 28.758 489.176 29.29C489.176 29.8127 489.288 30.2747 489.512 30.676C489.736 31.068 490.035 31.3713 490.408 31.586C490.782 31.8007 491.206 31.908 491.682 31.908ZM500.513 33.084C499.879 33.084 499.319 32.9673 498.833 32.734C498.357 32.5007 497.984 32.146 497.713 31.67C497.452 31.1847 497.321 30.578 497.321 29.85V25.58H498.665V29.696C498.665 30.424 498.838 30.97 499.183 31.334C499.538 31.698 500.033 31.88 500.667 31.88C501.134 31.88 501.54 31.7867 501.885 31.6C502.231 31.404 502.497 31.124 502.683 30.76C502.87 30.3867 502.963 29.9387 502.963 29.416V25.58H504.307V33H503.033V30.998L503.243 31.53C503.001 32.0247 502.637 32.4073 502.151 32.678C501.666 32.9487 501.12 33.084 500.513 33.084ZM506.866 33V25.58H508.154V27.596L508.028 27.092C508.233 26.5787 508.578 26.1867 509.064 25.916C509.549 25.6453 510.146 25.51 510.856 25.51V26.812C510.8 26.8027 510.744 26.798 510.688 26.798C510.641 26.798 510.594 26.798 510.548 26.798C509.829 26.798 509.26 27.0127 508.84 27.442C508.42 27.8713 508.21 28.492 508.21 29.304V33H506.866ZM516.564 33V23.2H517.964V31.782H523.27V33H516.564ZM529.286 33V31.432L529.216 31.138V28.464C529.216 27.8947 529.048 27.456 528.712 27.148C528.386 26.8307 527.891 26.672 527.228 26.672C526.79 26.672 526.36 26.7467 525.94 26.896C525.52 27.036 525.166 27.2273 524.876 27.47L524.316 26.462C524.699 26.154 525.156 25.9207 525.688 25.762C526.23 25.594 526.794 25.51 527.382 25.51C528.4 25.51 529.184 25.7573 529.734 26.252C530.285 26.7467 530.56 27.5027 530.56 28.52V33H529.286ZM526.85 33.084C526.3 33.084 525.814 32.9907 525.394 32.804C524.984 32.6173 524.666 32.3607 524.442 32.034C524.218 31.698 524.106 31.32 524.106 30.9C524.106 30.4987 524.2 30.1347 524.386 29.808C524.582 29.4813 524.895 29.22 525.324 29.024C525.763 28.828 526.351 28.73 527.088 28.73H529.44V29.696H527.144C526.472 29.696 526.02 29.808 525.786 30.032C525.553 30.256 525.436 30.5267 525.436 30.844C525.436 31.208 525.581 31.502 525.87 31.726C526.16 31.9407 526.561 32.048 527.074 32.048C527.578 32.048 528.017 31.936 528.39 31.712C528.773 31.488 529.048 31.1613 529.216 30.732L529.482 31.656C529.305 32.0947 528.992 32.4447 528.544 32.706C528.096 32.958 527.532 33.084 526.85 33.084ZM535.175 33.084C534.559 33.084 533.971 33 533.411 32.832C532.861 32.664 532.427 32.4587 532.109 32.216L532.669 31.152C532.987 31.3667 533.379 31.5487 533.845 31.698C534.312 31.8473 534.788 31.922 535.273 31.922C535.899 31.922 536.347 31.8333 536.617 31.656C536.897 31.4787 537.037 31.2313 537.037 30.914C537.037 30.6807 536.953 30.4987 536.785 30.368C536.617 30.2373 536.393 30.1393 536.113 30.074C535.843 30.0087 535.539 29.9527 535.203 29.906C534.867 29.85 534.531 29.7847 534.195 29.71C533.859 29.626 533.551 29.514 533.271 29.374C532.991 29.2247 532.767 29.024 532.599 28.772C532.431 28.5107 532.347 28.1653 532.347 27.736C532.347 27.288 532.473 26.896 532.725 26.56C532.977 26.224 533.332 25.9673 533.789 25.79C534.256 25.6033 534.807 25.51 535.441 25.51C535.927 25.51 536.417 25.5707 536.911 25.692C537.415 25.804 537.826 25.9673 538.143 26.182L537.569 27.246C537.233 27.022 536.883 26.868 536.519 26.784C536.155 26.7 535.791 26.658 535.427 26.658C534.839 26.658 534.401 26.756 534.111 26.952C533.822 27.1387 533.677 27.3813 533.677 27.68C533.677 27.932 533.761 28.128 533.929 28.268C534.107 28.3987 534.331 28.5013 534.601 28.576C534.881 28.6507 535.189 28.716 535.525 28.772C535.861 28.8187 536.197 28.884 536.533 28.968C536.869 29.0427 537.173 29.15 537.443 29.29C537.723 29.43 537.947 29.626 538.115 29.878C538.293 30.13 538.381 30.466 538.381 30.886C538.381 31.334 538.251 31.7213 537.989 32.048C537.728 32.3747 537.359 32.6313 536.883 32.818C536.407 32.9953 535.838 33.084 535.175 33.084ZM542.609 33.084C541.862 33.084 541.284 32.8833 540.873 32.482C540.462 32.0807 540.257 31.5067 540.257 30.76V23.956H541.601V30.704C541.601 31.1053 541.699 31.4133 541.895 31.628C542.1 31.8427 542.39 31.95 542.763 31.95C543.183 31.95 543.533 31.8333 543.813 31.6L544.233 32.566C544.028 32.7433 543.78 32.874 543.491 32.958C543.211 33.042 542.917 33.084 542.609 33.084ZM538.997 26.686V25.58H543.729V26.686H538.997ZM549.814 33V23.2H550.962L557.444 31.25H556.842V23.2H558.242V33H557.094L550.612 24.95H551.214V33H549.814ZM565.585 33V31.432L565.515 31.138V28.464C565.515 27.8947 565.347 27.456 565.011 27.148C564.684 26.8307 564.19 26.672 563.527 26.672C563.088 26.672 562.659 26.7467 562.239 26.896C561.819 27.036 561.464 27.2273 561.175 27.47L560.615 26.462C560.998 26.154 561.455 25.9207 561.987 25.762C562.528 25.594 563.093 25.51 563.681 25.51C564.698 25.51 565.482 25.7573 566.033 26.252C566.584 26.7467 566.859 27.5027 566.859 28.52V33H565.585ZM563.149 33.084C562.598 33.084 562.113 32.9907 561.693 32.804C561.282 32.6173 560.965 32.3607 560.741 32.034C560.517 31.698 560.405 31.32 560.405 30.9C560.405 30.4987 560.498 30.1347 560.685 29.808C560.881 29.4813 561.194 29.22 561.623 29.024C562.062 28.828 562.65 28.73 563.387 28.73H565.739V29.696H563.443C562.771 29.696 562.318 29.808 562.085 30.032C561.852 30.256 561.735 30.5267 561.735 30.844C561.735 31.208 561.88 31.502 562.169 31.726C562.458 31.9407 562.86 32.048 563.373 32.048C563.877 32.048 564.316 31.936 564.689 31.712C565.072 31.488 565.347 31.1613 565.515 30.732L565.781 31.656C565.604 32.0947 565.291 32.4447 564.843 32.706C564.395 32.958 563.83 33.084 563.149 33.084ZM578.628 25.51C579.226 25.51 579.753 25.6267 580.21 25.86C580.668 26.0933 581.022 26.448 581.274 26.924C581.536 27.4 581.666 28.002 581.666 28.73V33H580.322V28.884C580.322 28.1653 580.154 27.624 579.818 27.26C579.482 26.896 579.011 26.714 578.404 26.714C577.956 26.714 577.564 26.8073 577.228 26.994C576.892 27.1807 576.631 27.456 576.444 27.82C576.267 28.184 576.178 28.6367 576.178 29.178V33H574.834V28.884C574.834 28.1653 574.666 27.624 574.33 27.26C574.004 26.896 573.532 26.714 572.916 26.714C572.478 26.714 572.09 26.8073 571.754 26.994C571.418 27.1807 571.157 27.456 570.97 27.82C570.784 28.184 570.69 28.6367 570.69 29.178V33H569.346V25.58H570.634V27.554L570.424 27.05C570.658 26.5647 571.017 26.1867 571.502 25.916C571.988 25.6453 572.552 25.51 573.196 25.51C573.906 25.51 574.517 25.6873 575.03 26.042C575.544 26.3873 575.88 26.9147 576.038 27.624L575.492 27.4C575.716 26.8307 576.108 26.3733 576.668 26.028C577.228 25.6827 577.882 25.51 578.628 25.51ZM587.443 33.084C586.65 33.084 585.95 32.9207 585.343 32.594C584.746 32.2673 584.279 31.8193 583.943 31.25C583.617 30.6807 583.453 30.0273 583.453 29.29C583.453 28.5527 583.612 27.8993 583.929 27.33C584.256 26.7607 584.699 26.3173 585.259 26C585.829 25.6733 586.468 25.51 587.177 25.51C587.896 25.51 588.531 25.6687 589.081 25.986C589.632 26.3033 590.061 26.7513 590.369 27.33C590.687 27.8993 590.845 28.5667 590.845 29.332C590.845 29.388 590.841 29.4533 590.831 29.528C590.831 29.6027 590.827 29.6727 590.817 29.738H584.503V28.772H590.117L589.571 29.108C589.581 28.632 589.483 28.2073 589.277 27.834C589.072 27.4607 588.787 27.1713 588.423 26.966C588.069 26.7513 587.653 26.644 587.177 26.644C586.711 26.644 586.295 26.7513 585.931 26.966C585.567 27.1713 585.283 27.4653 585.077 27.848C584.872 28.2213 584.769 28.6507 584.769 29.136V29.36C584.769 29.8547 584.881 30.298 585.105 30.69C585.339 31.0727 585.661 31.3713 586.071 31.586C586.482 31.8007 586.953 31.908 587.485 31.908C587.924 31.908 588.321 31.8333 588.675 31.684C589.039 31.5347 589.357 31.3107 589.627 31.012L590.369 31.88C590.033 32.272 589.613 32.5707 589.109 32.776C588.615 32.9813 588.059 33.084 587.443 33.084Z" fill="#051E39" fill-opacity="0.6"/>
<rect x="463.5" y="0.5" width="386" height="55" rx="4.5" stroke="#051E39" stroke-opacity="0.2"/>
<rect x="60" y="72" width="387" height="56" rx="5" fill="#F6F6F6"/>
<path d="M79.836 105V101.248L80.158 102.116L75.944 95.2H77.442L80.984 101.038H80.172L83.728 95.2H85.114L80.914 102.116L81.222 101.248V105H79.836ZM88.6825 105.084C87.9358 105.084 87.2731 104.921 86.6945 104.594C86.1158 104.267 85.6585 103.819 85.3225 103.25C84.9865 102.671 84.8185 102.018 84.8185 101.29C84.8185 100.553 84.9865 99.8993 85.3225 99.33C85.6585 98.7607 86.1158 98.3173 86.6945 98C87.2731 97.6733 87.9358 97.51 88.6825 97.51C89.4198 97.51 90.0778 97.6733 90.6565 98C91.2445 98.3173 91.7018 98.7607 92.0285 99.33C92.3645 99.89 92.5325 100.543 92.5325 101.29C92.5325 102.027 92.3645 102.681 92.0285 103.25C91.7018 103.819 91.2445 104.267 90.6565 104.594C90.0778 104.921 89.4198 105.084 88.6825 105.084ZM88.6825 103.908C89.1585 103.908 89.5831 103.801 89.9565 103.586C90.3391 103.371 90.6378 103.068 90.8525 102.676C91.0671 102.275 91.1745 101.813 91.1745 101.29C91.1745 100.758 91.0671 100.301 90.8525 99.918C90.6378 99.526 90.3391 99.2227 89.9565 99.008C89.5831 98.7933 89.1585 98.686 88.6825 98.686C88.2065 98.686 87.7818 98.7933 87.4085 99.008C87.0351 99.2227 86.7365 99.526 86.5125 99.918C86.2885 100.301 86.1765 100.758 86.1765 101.29C86.1765 101.813 86.2885 102.275 86.5125 102.676C86.7365 103.068 87.0351 103.371 87.4085 103.586C87.7818 103.801 88.2065 103.908 88.6825 103.908ZM97.5132 105.084C96.8785 105.084 96.3185 104.967 95.8332 104.734C95.3572 104.501 94.9839 104.146 94.7132 103.67C94.4519 103.185 94.3212 102.578 94.3212 101.85V97.58H95.6652V101.696C95.6652 102.424 95.8379 102.97 96.1832 103.334C96.5379 103.698 97.0325 103.88 97.6672 103.88C98.1339 103.88 98.5399 103.787 98.8852 103.6C99.2305 103.404 99.4965 103.124 99.6832 102.76C99.8699 102.387 99.9632 101.939 99.9632 101.416V97.58H101.307V105H100.033V102.998L100.243 103.53C100.001 104.025 99.6365 104.407 99.1512 104.678C98.6659 104.949 98.1199 105.084 97.5132 105.084ZM103.866 105V97.58H105.154V99.596L105.028 99.092C105.233 98.5787 105.578 98.1867 106.064 97.916C106.549 97.6453 107.146 97.51 107.856 97.51V98.812C107.8 98.8027 107.744 98.798 107.688 98.798C107.641 98.798 107.594 98.798 107.548 98.798C106.829 98.798 106.26 99.0127 105.84 99.442C105.42 99.8713 105.21 100.492 105.21 101.304V105H103.866ZM114.838 99.428H119.878V100.618H114.838V99.428ZM114.964 103.782H120.676V105H113.564V95.2H120.48V96.418H114.964V103.782ZM132.029 97.51C132.626 97.51 133.153 97.6267 133.611 97.86C134.068 98.0933 134.423 98.448 134.675 98.924C134.936 99.4 135.067 100.002 135.067 100.73V105H133.723V100.884C133.723 100.165 133.555 99.624 133.219 99.26C132.883 98.896 132.411 98.714 131.805 98.714C131.357 98.714 130.965 98.8073 130.629 98.994C130.293 99.1807 130.031 99.456 129.845 99.82C129.667 100.184 129.579 100.637 129.579 101.178V105H128.235V100.884C128.235 100.165 128.067 99.624 127.731 99.26C127.404 98.896 126.933 98.714 126.317 98.714C125.878 98.714 125.491 98.8073 125.155 98.994C124.819 99.1807 124.557 99.456 124.371 99.82C124.184 100.184 124.091 100.637 124.091 101.178V105H122.747V97.58H124.035V99.554L123.825 99.05C124.058 98.5647 124.417 98.1867 124.903 97.916C125.388 97.6453 125.953 97.51 126.597 97.51C127.306 97.51 127.917 97.6873 128.431 98.042C128.944 98.3873 129.28 98.9147 129.439 99.624L128.893 99.4C129.117 98.8307 129.509 98.3733 130.069 98.028C130.629 97.6827 131.282 97.51 132.029 97.51ZM142.146 105V103.432L142.076 103.138V100.464C142.076 99.8947 141.908 99.456 141.572 99.148C141.245 98.8307 140.75 98.672 140.088 98.672C139.649 98.672 139.22 98.7467 138.8 98.896C138.38 99.036 138.025 99.2273 137.736 99.47L137.176 98.462C137.558 98.154 138.016 97.9207 138.548 97.762C139.089 97.594 139.654 97.51 140.242 97.51C141.259 97.51 142.043 97.7573 142.594 98.252C143.144 98.7467 143.42 99.5027 143.42 100.52V105H142.146ZM139.71 105.084C139.159 105.084 138.674 104.991 138.254 104.804C137.843 104.617 137.526 104.361 137.302 104.034C137.078 103.698 136.966 103.32 136.966 102.9C136.966 102.499 137.059 102.135 137.246 101.808C137.442 101.481 137.754 101.22 138.184 101.024C138.622 100.828 139.21 100.73 139.948 100.73H142.3V101.696H140.004C139.332 101.696 138.879 101.808 138.646 102.032C138.412 102.256 138.296 102.527 138.296 102.844C138.296 103.208 138.44 103.502 138.73 103.726C139.019 103.941 139.42 104.048 139.934 104.048C140.438 104.048 140.876 103.936 141.25 103.712C141.632 103.488 141.908 103.161 142.076 102.732L142.342 103.656C142.164 104.095 141.852 104.445 141.404 104.706C140.956 104.958 140.391 105.084 139.71 105.084ZM145.907 105V97.58H147.251V105H145.907ZM146.579 96.152C146.317 96.152 146.098 96.068 145.921 95.9C145.753 95.732 145.669 95.5267 145.669 95.284C145.669 95.032 145.753 94.822 145.921 94.654C146.098 94.486 146.317 94.402 146.579 94.402C146.84 94.402 147.055 94.486 147.223 94.654C147.4 94.8127 147.489 95.0133 147.489 95.256C147.489 95.508 147.405 95.7227 147.237 95.9C147.069 96.068 146.849 96.152 146.579 96.152ZM149.817 105V94.612H151.161V105H149.817Z" fill="#051E39" fill-opacity="0.6"/>
<rect x="60.5" y="72.5" width="386" height="55" rx="4.5" stroke="#051E39" stroke-opacity="0.2"/>
<rect x="463" y="72" width="387" height="56" rx="5" fill="#F6F6F6"/>
<path d="M482.836 105V101.248L483.158 102.116L478.944 95.2H480.442L483.984 101.038H483.172L486.728 95.2H488.114L483.914 102.116L484.222 101.248V105H482.836ZM491.682 105.084C490.936 105.084 490.273 104.921 489.694 104.594C489.116 104.267 488.658 103.819 488.322 103.25C487.986 102.671 487.818 102.018 487.818 101.29C487.818 100.553 487.986 99.8993 488.322 99.33C488.658 98.7607 489.116 98.3173 489.694 98C490.273 97.6733 490.936 97.51 491.682 97.51C492.42 97.51 493.078 97.6733 493.656 98C494.244 98.3173 494.702 98.7607 495.028 99.33C495.364 99.89 495.532 100.543 495.532 101.29C495.532 102.027 495.364 102.681 495.028 103.25C494.702 103.819 494.244 104.267 493.656 104.594C493.078 104.921 492.42 105.084 491.682 105.084ZM491.682 103.908C492.158 103.908 492.583 103.801 492.956 103.586C493.339 103.371 493.638 103.068 493.852 102.676C494.067 102.275 494.174 101.813 494.174 101.29C494.174 100.758 494.067 100.301 493.852 99.918C493.638 99.526 493.339 99.2227 492.956 99.008C492.583 98.7933 492.158 98.686 491.682 98.686C491.206 98.686 490.782 98.7933 490.408 99.008C490.035 99.2227 489.736 99.526 489.512 99.918C489.288 100.301 489.176 100.758 489.176 101.29C489.176 101.813 489.288 102.275 489.512 102.676C489.736 103.068 490.035 103.371 490.408 103.586C490.782 103.801 491.206 103.908 491.682 103.908ZM500.513 105.084C499.879 105.084 499.319 104.967 498.833 104.734C498.357 104.501 497.984 104.146 497.713 103.67C497.452 103.185 497.321 102.578 497.321 101.85V97.58H498.665V101.696C498.665 102.424 498.838 102.97 499.183 103.334C499.538 103.698 500.033 103.88 500.667 103.88C501.134 103.88 501.54 103.787 501.885 103.6C502.231 103.404 502.497 103.124 502.683 102.76C502.87 102.387 502.963 101.939 502.963 101.416V97.58H504.307V105H503.033V102.998L503.243 103.53C503.001 104.025 502.637 104.407 502.151 104.678C501.666 104.949 501.12 105.084 500.513 105.084ZM506.866 105V97.58H508.154V99.596L508.028 99.092C508.233 98.5787 508.578 98.1867 509.064 97.916C509.549 97.6453 510.146 97.51 510.856 97.51V98.812C510.8 98.8027 510.744 98.798 510.688 98.798C510.641 98.798 510.594 98.798 510.548 98.798C509.829 98.798 509.26 99.0127 508.84 99.442C508.42 99.8713 508.21 100.492 508.21 101.304V105H506.866ZM516.564 105V95.2H520.386C521.244 95.2 521.977 95.3353 522.584 95.606C523.19 95.8767 523.657 96.2687 523.984 96.782C524.31 97.2953 524.474 97.9067 524.474 98.616C524.474 99.3253 524.31 99.9367 523.984 100.45C523.657 100.954 523.19 101.346 522.584 101.626C521.977 101.897 521.244 102.032 520.386 102.032H517.334L517.964 101.374V105H516.564ZM517.964 101.514L517.334 100.814H520.344C521.24 100.814 521.916 100.623 522.374 100.24C522.84 99.8573 523.074 99.316 523.074 98.616C523.074 97.916 522.84 97.3747 522.374 96.992C521.916 96.6093 521.24 96.418 520.344 96.418H517.334L517.964 95.718V101.514ZM530.433 97.51C531.04 97.51 531.572 97.6267 532.029 97.86C532.496 98.0933 532.86 98.448 533.121 98.924C533.383 99.4 533.513 100.002 533.513 100.73V105H532.169V100.884C532.169 100.165 531.992 99.624 531.637 99.26C531.292 98.896 530.802 98.714 530.167 98.714C529.691 98.714 529.276 98.8073 528.921 98.994C528.567 99.1807 528.291 99.456 528.095 99.82C527.909 100.184 527.815 100.637 527.815 101.178V105H526.471V94.612H527.815V99.582L527.549 99.05C527.792 98.5647 528.165 98.1867 528.669 97.916C529.173 97.6453 529.761 97.51 530.433 97.51ZM539.179 105.084C538.432 105.084 537.769 104.921 537.191 104.594C536.612 104.267 536.155 103.819 535.819 103.25C535.483 102.671 535.315 102.018 535.315 101.29C535.315 100.553 535.483 99.8993 535.819 99.33C536.155 98.7607 536.612 98.3173 537.191 98C537.769 97.6733 538.432 97.51 539.179 97.51C539.916 97.51 540.574 97.6733 541.153 98C541.741 98.3173 542.198 98.7607 542.525 99.33C542.861 99.89 543.029 100.543 543.029 101.29C543.029 102.027 542.861 102.681 542.525 103.25C542.198 103.819 541.741 104.267 541.153 104.594C540.574 104.921 539.916 105.084 539.179 105.084ZM539.179 103.908C539.655 103.908 540.079 103.801 540.453 103.586C540.835 103.371 541.134 103.068 541.349 102.676C541.563 102.275 541.671 101.813 541.671 101.29C541.671 100.758 541.563 100.301 541.349 99.918C541.134 99.526 540.835 99.2227 540.453 99.008C540.079 98.7933 539.655 98.686 539.179 98.686C538.703 98.686 538.278 98.7933 537.905 99.008C537.531 99.2227 537.233 99.526 537.009 99.918C536.785 100.301 536.673 100.758 536.673 101.29C536.673 101.813 536.785 102.275 537.009 102.676C537.233 103.068 537.531 103.371 537.905 103.586C538.278 103.801 538.703 103.908 539.179 103.908ZM548.849 97.51C549.456 97.51 549.988 97.6267 550.445 97.86C550.912 98.0933 551.276 98.448 551.537 98.924C551.799 99.4 551.929 100.002 551.929 100.73V105H550.585V100.884C550.585 100.165 550.408 99.624 550.053 99.26C549.708 98.896 549.218 98.714 548.583 98.714C548.107 98.714 547.692 98.8073 547.337 98.994C546.983 99.1807 546.707 99.456 546.511 99.82C546.325 100.184 546.231 100.637 546.231 101.178V105H544.887V97.58H546.175V99.582L545.965 99.05C546.208 98.5647 546.581 98.1867 547.085 97.916C547.589 97.6453 548.177 97.51 548.849 97.51ZM557.721 105.084C556.927 105.084 556.227 104.921 555.621 104.594C555.023 104.267 554.557 103.819 554.221 103.25C553.894 102.681 553.731 102.027 553.731 101.29C553.731 100.553 553.889 99.8993 554.207 99.33C554.533 98.7607 554.977 98.3173 555.537 98C556.106 97.6733 556.745 97.51 557.455 97.51C558.173 97.51 558.808 97.6687 559.359 97.986C559.909 98.3033 560.339 98.7513 560.647 99.33C560.964 99.8993 561.123 100.567 561.123 101.332C561.123 101.388 561.118 101.453 561.109 101.528C561.109 101.603 561.104 101.673 561.095 101.738H554.781V100.772H560.395L559.849 101.108C559.858 100.632 559.76 100.207 559.555 99.834C559.349 99.4607 559.065 99.1713 558.701 98.966C558.346 98.7513 557.931 98.644 557.455 98.644C556.988 98.644 556.573 98.7513 556.209 98.966C555.845 99.1713 555.56 99.4653 555.355 99.848C555.149 100.221 555.047 100.651 555.047 101.136V101.36C555.047 101.855 555.159 102.298 555.383 102.69C555.616 103.073 555.938 103.371 556.349 103.586C556.759 103.801 557.231 103.908 557.763 103.908C558.201 103.908 558.598 103.833 558.953 103.684C559.317 103.535 559.634 103.311 559.905 103.012L560.647 103.88C560.311 104.272 559.891 104.571 559.387 104.776C558.892 104.981 558.337 105.084 557.721 105.084Z" fill="#051E39" fill-opacity="0.6"/>
<rect x="463.5" y="72.5" width="386" height="55" rx="4.5" stroke="#051E39" stroke-opacity="0.2"/>
<rect x="60" y="144" width="790" height="112" rx="5" fill="#F6F6F6"/>
<path d="M79.836 177V173.248L80.158 174.116L75.944 167.2H77.442L80.984 173.038H80.172L83.728 167.2H85.114L80.914 174.116L81.222 173.248V177H79.836ZM88.6825 177.084C87.9358 177.084 87.2731 176.921 86.6945 176.594C86.1158 176.267 85.6585 175.819 85.3225 175.25C84.9865 174.671 84.8185 174.018 84.8185 173.29C84.8185 172.553 84.9865 171.899 85.3225 171.33C85.6585 170.761 86.1158 170.317 86.6945 170C87.2731 169.673 87.9358 169.51 88.6825 169.51C89.4198 169.51 90.0778 169.673 90.6565 170C91.2445 170.317 91.7018 170.761 92.0285 171.33C92.3645 171.89 92.5325 172.543 92.5325 173.29C92.5325 174.027 92.3645 174.681 92.0285 175.25C91.7018 175.819 91.2445 176.267 90.6565 176.594C90.0778 176.921 89.4198 177.084 88.6825 177.084ZM88.6825 175.908C89.1585 175.908 89.5831 175.801 89.9565 175.586C90.3391 175.371 90.6378 175.068 90.8525 174.676C91.0671 174.275 91.1745 173.813 91.1745 173.29C91.1745 172.758 91.0671 172.301 90.8525 171.918C90.6378 171.526 90.3391 171.223 89.9565 171.008C89.5831 170.793 89.1585 170.686 88.6825 170.686C88.2065 170.686 87.7818 170.793 87.4085 171.008C87.0351 171.223 86.7365 171.526 86.5125 171.918C86.2885 172.301 86.1765 172.758 86.1765 173.29C86.1765 173.813 86.2885 174.275 86.5125 174.676C86.7365 175.068 87.0351 175.371 87.4085 175.586C87.7818 175.801 88.2065 175.908 88.6825 175.908ZM97.5132 177.084C96.8785 177.084 96.3185 176.967 95.8332 176.734C95.3572 176.501 94.9839 176.146 94.7132 175.67C94.4519 175.185 94.3212 174.578 94.3212 173.85V169.58H95.6652V173.696C95.6652 174.424 95.8379 174.97 96.1832 175.334C96.5379 175.698 97.0325 175.88 97.6672 175.88C98.1339 175.88 98.5399 175.787 98.8852 175.6C99.2305 175.404 99.4965 175.124 99.6832 174.76C99.8699 174.387 99.9632 173.939 99.9632 173.416V169.58H101.307V177H100.033V174.998L100.243 175.53C100.001 176.025 99.6365 176.407 99.1512 176.678C98.6659 176.949 98.1199 177.084 97.5132 177.084ZM103.866 177V169.58H105.154V171.596L105.028 171.092C105.233 170.579 105.578 170.187 106.064 169.916C106.549 169.645 107.146 169.51 107.856 169.51V170.812C107.8 170.803 107.744 170.798 107.688 170.798C107.641 170.798 107.594 170.798 107.548 170.798C106.829 170.798 106.26 171.013 105.84 171.442C105.42 171.871 105.21 172.492 105.21 173.304V177H103.866ZM113.564 177V167.2H114.712L119.108 174.606H118.492L122.832 167.2H123.98L123.994 177H122.65L122.636 169.314H122.958L119.094 175.81H118.45L114.558 169.314H114.908V177H113.564ZM130.043 177.084C129.25 177.084 128.55 176.921 127.943 176.594C127.346 176.267 126.879 175.819 126.543 175.25C126.216 174.681 126.053 174.027 126.053 173.29C126.053 172.553 126.212 171.899 126.529 171.33C126.856 170.761 127.299 170.317 127.859 170C128.428 169.673 129.068 169.51 129.777 169.51C130.496 169.51 131.13 169.669 131.681 169.986C132.232 170.303 132.661 170.751 132.969 171.33C133.286 171.899 133.445 172.567 133.445 173.332C133.445 173.388 133.44 173.453 133.431 173.528C133.431 173.603 133.426 173.673 133.417 173.738H127.103V172.772H132.717L132.171 173.108C132.18 172.632 132.082 172.207 131.877 171.834C131.672 171.461 131.387 171.171 131.023 170.966C130.668 170.751 130.253 170.644 129.777 170.644C129.31 170.644 128.895 170.751 128.531 170.966C128.167 171.171 127.882 171.465 127.677 171.848C127.472 172.221 127.369 172.651 127.369 173.136V173.36C127.369 173.855 127.481 174.298 127.705 174.69C127.938 175.073 128.26 175.371 128.671 175.586C129.082 175.801 129.553 175.908 130.085 175.908C130.524 175.908 130.92 175.833 131.275 175.684C131.639 175.535 131.956 175.311 132.227 175.012L132.969 175.88C132.633 176.272 132.213 176.571 131.709 176.776C131.214 176.981 130.659 177.084 130.043 177.084ZM137.439 177.084C136.823 177.084 136.235 177 135.675 176.832C135.124 176.664 134.69 176.459 134.373 176.216L134.933 175.152C135.25 175.367 135.642 175.549 136.109 175.698C136.576 175.847 137.052 175.922 137.537 175.922C138.162 175.922 138.61 175.833 138.881 175.656C139.161 175.479 139.301 175.231 139.301 174.914C139.301 174.681 139.217 174.499 139.049 174.368C138.881 174.237 138.657 174.139 138.377 174.074C138.106 174.009 137.803 173.953 137.467 173.906C137.131 173.85 136.795 173.785 136.459 173.71C136.123 173.626 135.815 173.514 135.535 173.374C135.255 173.225 135.031 173.024 134.863 172.772C134.695 172.511 134.611 172.165 134.611 171.736C134.611 171.288 134.737 170.896 134.989 170.56C135.241 170.224 135.596 169.967 136.053 169.79C136.52 169.603 137.07 169.51 137.705 169.51C138.19 169.51 138.68 169.571 139.175 169.692C139.679 169.804 140.09 169.967 140.407 170.182L139.833 171.246C139.497 171.022 139.147 170.868 138.783 170.784C138.419 170.7 138.055 170.658 137.691 170.658C137.103 170.658 136.664 170.756 136.375 170.952C136.086 171.139 135.941 171.381 135.941 171.68C135.941 171.932 136.025 172.128 136.193 172.268C136.37 172.399 136.594 172.501 136.865 172.576C137.145 172.651 137.453 172.716 137.789 172.772C138.125 172.819 138.461 172.884 138.797 172.968C139.133 173.043 139.436 173.15 139.707 173.29C139.987 173.43 140.211 173.626 140.379 173.878C140.556 174.13 140.645 174.466 140.645 174.886C140.645 175.334 140.514 175.721 140.253 176.048C139.992 176.375 139.623 176.631 139.147 176.818C138.671 176.995 138.102 177.084 137.439 177.084ZM144.453 177.084C143.837 177.084 143.249 177 142.689 176.832C142.138 176.664 141.704 176.459 141.387 176.216L141.947 175.152C142.264 175.367 142.656 175.549 143.123 175.698C143.589 175.847 144.065 175.922 144.551 175.922C145.176 175.922 145.624 175.833 145.895 175.656C146.175 175.479 146.315 175.231 146.315 174.914C146.315 174.681 146.231 174.499 146.063 174.368C145.895 174.237 145.671 174.139 145.391 174.074C145.12 174.009 144.817 173.953 144.481 173.906C144.145 173.85 143.809 173.785 143.473 173.71C143.137 173.626 142.829 173.514 142.549 173.374C142.269 173.225 142.045 173.024 141.877 172.772C141.709 172.511 141.625 172.165 141.625 171.736C141.625 171.288 141.751 170.896 142.003 170.56C142.255 170.224 142.609 169.967 143.067 169.79C143.533 169.603 144.084 169.51 144.719 169.51C145.204 169.51 145.694 169.571 146.189 169.692C146.693 169.804 147.103 169.967 147.421 170.182L146.847 171.246C146.511 171.022 146.161 170.868 145.797 170.784C145.433 170.7 145.069 170.658 144.705 170.658C144.117 170.658 143.678 170.756 143.389 170.952C143.099 171.139 142.955 171.381 142.955 171.68C142.955 171.932 143.039 172.128 143.207 172.268C143.384 172.399 143.608 172.501 143.879 172.576C144.159 172.651 144.467 172.716 144.803 172.772C145.139 172.819 145.475 172.884 145.811 172.968C146.147 173.043 146.45 173.15 146.721 173.29C147.001 173.43 147.225 173.626 147.393 173.878C147.57 174.13 147.659 174.466 147.659 174.886C147.659 175.334 147.528 175.721 147.267 176.048C147.005 176.375 146.637 176.631 146.161 176.818C145.685 176.995 145.115 177.084 144.453 177.084ZM153.944 177V175.432L153.874 175.138V172.464C153.874 171.895 153.706 171.456 153.37 171.148C153.044 170.831 152.549 170.672 151.886 170.672C151.448 170.672 151.018 170.747 150.598 170.896C150.178 171.036 149.824 171.227 149.534 171.47L148.974 170.462C149.357 170.154 149.814 169.921 150.346 169.762C150.888 169.594 151.452 169.51 152.04 169.51C153.058 169.51 153.842 169.757 154.392 170.252C154.943 170.747 155.218 171.503 155.218 172.52V177H153.944ZM151.508 177.084C150.958 177.084 150.472 176.991 150.052 176.804C149.642 176.617 149.324 176.361 149.1 176.034C148.876 175.698 148.764 175.32 148.764 174.9C148.764 174.499 148.858 174.135 149.044 173.808C149.24 173.481 149.553 173.22 149.982 173.024C150.421 172.828 151.009 172.73 151.746 172.73H154.098V173.696H151.802C151.13 173.696 150.678 173.808 150.444 174.032C150.211 174.256 150.094 174.527 150.094 174.844C150.094 175.208 150.239 175.502 150.528 175.726C150.818 175.941 151.219 176.048 151.732 176.048C152.236 176.048 152.675 175.936 153.048 175.712C153.431 175.488 153.706 175.161 153.874 174.732L154.14 175.656C153.963 176.095 153.65 176.445 153.202 176.706C152.754 176.958 152.19 177.084 151.508 177.084ZM160.954 179.8C160.272 179.8 159.61 179.702 158.966 179.506C158.331 179.319 157.813 179.049 157.412 178.694L158.056 177.658C158.401 177.957 158.826 178.19 159.33 178.358C159.834 178.535 160.361 178.624 160.912 178.624C161.789 178.624 162.433 178.419 162.844 178.008C163.254 177.597 163.46 176.972 163.46 176.132V174.564L163.6 173.094L163.53 171.61V169.58H164.804V175.992C164.804 177.299 164.477 178.26 163.824 178.876C163.17 179.492 162.214 179.8 160.954 179.8ZM160.786 176.692C160.067 176.692 159.423 176.543 158.854 176.244C158.294 175.936 157.846 175.511 157.51 174.97C157.183 174.429 157.02 173.803 157.02 173.094C157.02 172.375 157.183 171.75 157.51 171.218C157.846 170.677 158.294 170.257 158.854 169.958C159.423 169.659 160.067 169.51 160.786 169.51C161.42 169.51 161.999 169.641 162.522 169.902C163.044 170.154 163.46 170.546 163.768 171.078C164.085 171.61 164.244 172.282 164.244 173.094C164.244 173.897 164.085 174.564 163.768 175.096C163.46 175.628 163.044 176.029 162.522 176.3C161.999 176.561 161.42 176.692 160.786 176.692ZM160.94 175.516C161.434 175.516 161.873 175.413 162.256 175.208C162.638 175.003 162.937 174.718 163.152 174.354C163.376 173.99 163.488 173.57 163.488 173.094C163.488 172.618 163.376 172.198 163.152 171.834C162.937 171.47 162.638 171.19 162.256 170.994C161.873 170.789 161.434 170.686 160.94 170.686C160.445 170.686 160.002 170.789 159.61 170.994C159.227 171.19 158.924 171.47 158.7 171.834C158.485 172.198 158.378 172.618 158.378 173.094C158.378 173.57 158.485 173.99 158.7 174.354C158.924 174.718 159.227 175.003 159.61 175.208C160.002 175.413 160.445 175.516 160.94 175.516ZM170.676 177.084C169.882 177.084 169.182 176.921 168.576 176.594C167.978 176.267 167.512 175.819 167.176 175.25C166.849 174.681 166.686 174.027 166.686 173.29C166.686 172.553 166.844 171.899 167.162 171.33C167.488 170.761 167.932 170.317 168.492 170C169.061 169.673 169.7 169.51 170.41 169.51C171.128 169.51 171.763 169.669 172.314 169.986C172.864 170.303 173.294 170.751 173.602 171.33C173.919 171.899 174.078 172.567 174.078 173.332C174.078 173.388 174.073 173.453 174.064 173.528C174.064 173.603 174.059 173.673 174.05 173.738H167.736V172.772H173.35L172.804 173.108C172.813 172.632 172.715 172.207 172.51 171.834C172.304 171.461 172.02 171.171 171.656 170.966C171.301 170.751 170.886 170.644 170.41 170.644C169.943 170.644 169.528 170.751 169.164 170.966C168.8 171.171 168.515 171.465 168.31 171.848C168.104 172.221 168.002 172.651 168.002 173.136V173.36C168.002 173.855 168.114 174.298 168.338 174.69C168.571 175.073 168.893 175.371 169.304 175.586C169.714 175.801 170.186 175.908 170.718 175.908C171.156 175.908 171.553 175.833 171.908 175.684C172.272 175.535 172.589 175.311 172.86 175.012L173.602 175.88C173.266 176.272 172.846 176.571 172.342 176.776C171.847 176.981 171.292 177.084 170.676 177.084Z" fill="#051E39" fill-opacity="0.6"/>
<rect x="60.5" y="144.5" width="789" height="111" rx="4.5" stroke="#051E39" stroke-opacity="0.2"/>
<g>
<rect x="60" y="288" width="790" height="56" rx="5" fill="#00AEEF" shape-rendering="crispEdges"/>
<path d="M380.062 322.144C379.102 322.144 378.184 322 377.308 321.712C376.432 321.412 375.742 321.028 375.238 320.56L375.904 319.156C376.384 319.576 376.996 319.924 377.74 320.2C378.484 320.476 379.258 320.614 380.062 320.614C380.794 320.614 381.388 320.53 381.844 320.362C382.3 320.194 382.636 319.966 382.852 319.678C383.068 319.378 383.176 319.042 383.176 318.67C383.176 318.238 383.032 317.89 382.744 317.626C382.468 317.362 382.102 317.152 381.646 316.996C381.202 316.828 380.71 316.684 380.17 316.564C379.63 316.444 379.084 316.306 378.532 316.15C377.992 315.982 377.494 315.772 377.038 315.52C376.594 315.268 376.234 314.932 375.958 314.512C375.682 314.08 375.544 313.528 375.544 312.856C375.544 312.208 375.712 311.614 376.048 311.074C376.396 310.522 376.924 310.084 377.632 309.76C378.352 309.424 379.264 309.256 380.368 309.256C381.1 309.256 381.826 309.352 382.546 309.544C383.266 309.736 383.89 310.012 384.418 310.372L383.824 311.812C383.284 311.452 382.714 311.194 382.114 311.038C381.514 310.87 380.932 310.786 380.368 310.786C379.66 310.786 379.078 310.876 378.622 311.056C378.166 311.236 377.83 311.476 377.614 311.776C377.41 312.076 377.308 312.412 377.308 312.784C377.308 313.228 377.446 313.582 377.722 313.846C378.01 314.11 378.376 314.32 378.82 314.476C379.276 314.632 379.774 314.776 380.314 314.908C380.854 315.028 381.394 315.166 381.934 315.322C382.486 315.478 382.984 315.682 383.428 315.934C383.884 316.186 384.25 316.522 384.526 316.942C384.802 317.362 384.94 317.902 384.94 318.562C384.94 319.198 384.766 319.792 384.418 320.344C384.07 320.884 383.53 321.322 382.798 321.658C382.078 321.982 381.166 322.144 380.062 322.144ZM391.566 322.108C390.546 322.108 389.646 321.898 388.866 321.478C388.098 321.058 387.498 320.482 387.066 319.75C386.646 319.018 386.436 318.178 386.436 317.23C386.436 316.282 386.64 315.442 387.048 314.71C387.468 313.978 388.038 313.408 388.758 313C389.49 312.58 390.312 312.37 391.224 312.37C392.148 312.37 392.964 312.574 393.672 312.982C394.38 313.39 394.932 313.966 395.328 314.71C395.736 315.442 395.94 316.3 395.94 317.284C395.94 317.356 395.934 317.44 395.922 317.536C395.922 317.632 395.916 317.722 395.904 317.806H387.786V316.564H395.004L394.302 316.996C394.314 316.384 394.188 315.838 393.924 315.358C393.66 314.878 393.294 314.506 392.826 314.242C392.37 313.966 391.836 313.828 391.224 313.828C390.624 313.828 390.09 313.966 389.622 314.242C389.154 314.506 388.788 314.884 388.524 315.376C388.26 315.856 388.128 316.408 388.128 317.032V317.32C388.128 317.956 388.272 318.526 388.56 319.03C388.86 319.522 389.274 319.906 389.802 320.182C390.33 320.458 390.936 320.596 391.62 320.596C392.184 320.596 392.694 320.5 393.15 320.308C393.618 320.116 394.026 319.828 394.374 319.444L395.328 320.56C394.896 321.064 394.356 321.448 393.708 321.712C393.072 321.976 392.358 322.108 391.566 322.108ZM403.433 312.37C404.213 312.37 404.897 312.52 405.485 312.82C406.085 313.12 406.553 313.576 406.889 314.188C407.225 314.8 407.393 315.574 407.393 316.51V322H405.665V316.708C405.665 315.784 405.437 315.088 404.981 314.62C404.537 314.152 403.907 313.918 403.091 313.918C402.479 313.918 401.945 314.038 401.489 314.278C401.033 314.518 400.679 314.872 400.427 315.34C400.187 315.808 400.067 316.39 400.067 317.086V322H398.339V312.46H399.995V315.034L399.725 314.35C400.037 313.726 400.517 313.24 401.165 312.892C401.813 312.544 402.569 312.37 403.433 312.37ZM414.533 322.108C413.609 322.108 412.781 321.904 412.049 321.496C411.329 321.088 410.759 320.518 410.339 319.786C409.919 319.054 409.709 318.202 409.709 317.23C409.709 316.258 409.919 315.412 410.339 314.692C410.759 313.96 411.329 313.39 412.049 312.982C412.781 312.574 413.609 312.37 414.533 312.37C415.337 312.37 416.063 312.55 416.711 312.91C417.359 313.27 417.875 313.81 418.259 314.53C418.655 315.25 418.853 316.15 418.853 317.23C418.853 318.31 418.661 319.21 418.277 319.93C417.905 320.65 417.395 321.196 416.747 321.568C416.099 321.928 415.361 322.108 414.533 322.108ZM414.677 320.596C415.277 320.596 415.817 320.458 416.297 320.182C416.789 319.906 417.173 319.516 417.449 319.012C417.737 318.496 417.881 317.902 417.881 317.23C417.881 316.546 417.737 315.958 417.449 315.466C417.173 314.962 416.789 314.572 416.297 314.296C415.817 314.02 415.277 313.882 414.677 313.882C414.065 313.882 413.519 314.02 413.039 314.296C412.559 314.572 412.175 314.962 411.887 315.466C411.599 315.958 411.455 316.546 411.455 317.23C411.455 317.902 411.599 318.496 411.887 319.012C412.175 319.516 412.559 319.906 413.039 320.182C413.519 320.458 414.065 320.596 414.677 320.596ZM417.935 322V319.426L418.043 317.212L417.863 314.998V308.644H419.591V322H417.935ZM427.947 322V309.4H429.423L435.075 318.922H434.283L439.863 309.4H441.339L441.357 322H439.629L439.611 312.118H440.025L435.057 320.47H434.229L429.225 312.118H429.675V322H427.947ZM449.134 322.108C448.114 322.108 447.214 321.898 446.434 321.478C445.666 321.058 445.066 320.482 444.634 319.75C444.214 319.018 444.004 318.178 444.004 317.23C444.004 316.282 444.208 315.442 444.616 314.71C445.036 313.978 445.606 313.408 446.326 313C447.058 312.58 447.88 312.37 448.792 312.37C449.716 312.37 450.532 312.574 451.24 312.982C451.948 313.39 452.5 313.966 452.896 314.71C453.304 315.442 453.508 316.3 453.508 317.284C453.508 317.356 453.502 317.44 453.49 317.536C453.49 317.632 453.484 317.722 453.472 317.806H445.354V316.564H452.572L451.87 316.996C451.882 316.384 451.756 315.838 451.492 315.358C451.228 314.878 450.862 314.506 450.394 314.242C449.938 313.966 449.404 313.828 448.792 313.828C448.192 313.828 447.658 313.966 447.19 314.242C446.722 314.506 446.356 314.884 446.092 315.376C445.828 315.856 445.696 316.408 445.696 317.032V317.32C445.696 317.956 445.84 318.526 446.128 319.03C446.428 319.522 446.842 319.906 447.37 320.182C447.898 320.458 448.504 320.596 449.188 320.596C449.752 320.596 450.262 320.5 450.718 320.308C451.186 320.116 451.594 319.828 451.942 319.444L452.896 320.56C452.464 321.064 451.924 321.448 451.276 321.712C450.64 321.976 449.926 322.108 449.134 322.108ZM458.644 322.108C457.852 322.108 457.096 322 456.376 321.784C455.668 321.568 455.11 321.304 454.702 320.992L455.422 319.624C455.83 319.9 456.334 320.134 456.934 320.326C457.534 320.518 458.146 320.614 458.77 320.614C459.574 320.614 460.15 320.5 460.498 320.272C460.858 320.044 461.038 319.726 461.038 319.318C461.038 319.018 460.93 318.784 460.714 318.616C460.498 318.448 460.21 318.322 459.85 318.238C459.502 318.154 459.112 318.082 458.68 318.022C458.248 317.95 457.816 317.866 457.384 317.77C456.952 317.662 456.556 317.518 456.196 317.338C455.836 317.146 455.548 316.888 455.332 316.564C455.116 316.228 455.008 315.784 455.008 315.232C455.008 314.656 455.17 314.152 455.494 313.72C455.818 313.288 456.274 312.958 456.862 312.73C457.462 312.49 458.17 312.37 458.986 312.37C459.61 312.37 460.24 312.448 460.876 312.604C461.524 312.748 462.052 312.958 462.46 313.234L461.722 314.602C461.29 314.314 460.84 314.116 460.372 314.008C459.904 313.9 459.436 313.846 458.968 313.846C458.212 313.846 457.648 313.972 457.276 314.224C456.904 314.464 456.718 314.776 456.718 315.16C456.718 315.484 456.826 315.736 457.042 315.916C457.27 316.084 457.558 316.216 457.906 316.312C458.266 316.408 458.662 316.492 459.094 316.564C459.526 316.624 459.958 316.708 460.39 316.816C460.822 316.912 461.212 317.05 461.56 317.23C461.92 317.41 462.208 317.662 462.424 317.986C462.652 318.31 462.766 318.742 462.766 319.282C462.766 319.858 462.598 320.356 462.262 320.776C461.926 321.196 461.452 321.526 460.84 321.766C460.228 321.994 459.496 322.108 458.644 322.108ZM467.661 322.108C466.869 322.108 466.113 322 465.393 321.784C464.685 321.568 464.127 321.304 463.719 320.992L464.439 319.624C464.847 319.9 465.351 320.134 465.951 320.326C466.551 320.518 467.163 320.614 467.787 320.614C468.591 320.614 469.167 320.5 469.515 320.272C469.875 320.044 470.055 319.726 470.055 319.318C470.055 319.018 469.947 318.784 469.731 318.616C469.515 318.448 469.227 318.322 468.867 318.238C468.519 318.154 468.129 318.082 467.697 318.022C467.265 317.95 466.833 317.866 466.401 317.77C465.969 317.662 465.573 317.518 465.213 317.338C464.853 317.146 464.565 316.888 464.349 316.564C464.133 316.228 464.025 315.784 464.025 315.232C464.025 314.656 464.187 314.152 464.511 313.72C464.835 313.288 465.291 312.958 465.879 312.73C466.479 312.49 467.187 312.37 468.003 312.37C468.627 312.37 469.257 312.448 469.893 312.604C470.541 312.748 471.069 312.958 471.477 313.234L470.739 314.602C470.307 314.314 469.857 314.116 469.389 314.008C468.921 313.9 468.453 313.846 467.985 313.846C467.229 313.846 466.665 313.972 466.293 314.224C465.921 314.464 465.735 314.776 465.735 315.16C465.735 315.484 465.843 315.736 466.059 315.916C466.287 316.084 466.575 316.216 466.923 316.312C467.283 316.408 467.679 316.492 468.111 316.564C468.543 316.624 468.975 316.708 469.407 316.816C469.839 316.912 470.229 317.05 470.577 317.23C470.937 317.41 471.225 317.662 471.441 317.986C471.669 318.31 471.783 318.742 471.783 319.282C471.783 319.858 471.615 320.356 471.279 320.776C470.943 321.196 470.469 321.526 469.857 321.766C469.245 321.994 468.513 322.108 467.661 322.108ZM479.865 322V319.984L479.775 319.606V316.168C479.775 315.436 479.559 314.872 479.127 314.476C478.707 314.068 478.071 313.864 477.219 313.864C476.655 313.864 476.103 313.96 475.563 314.152C475.023 314.332 474.567 314.578 474.195 314.89L473.475 313.594C473.967 313.198 474.555 312.898 475.239 312.694C475.935 312.478 476.661 312.37 477.417 312.37C478.725 312.37 479.733 312.688 480.441 313.324C481.149 313.96 481.503 314.932 481.503 316.24V322H479.865ZM476.733 322.108C476.025 322.108 475.401 321.988 474.861 321.748C474.333 321.508 473.925 321.178 473.637 320.758C473.349 320.326 473.205 319.84 473.205 319.3C473.205 318.784 473.325 318.316 473.565 317.896C473.817 317.476 474.219 317.14 474.771 316.888C475.335 316.636 476.091 316.51 477.039 316.51H480.063V317.752H477.111C476.247 317.752 475.665 317.896 475.365 318.184C475.065 318.472 474.915 318.82 474.915 319.228C474.915 319.696 475.101 320.074 475.473 320.362C475.845 320.638 476.361 320.776 477.021 320.776C477.669 320.776 478.233 320.632 478.713 320.344C479.205 320.056 479.559 319.636 479.775 319.084L480.117 320.272C479.889 320.836 479.487 321.286 478.911 321.622C478.335 321.946 477.609 322.108 476.733 322.108ZM488.877 325.6C488.001 325.6 487.149 325.474 486.321 325.222C485.505 324.982 484.839 324.634 484.323 324.178L485.151 322.846C485.595 323.23 486.141 323.53 486.789 323.746C487.437 323.974 488.115 324.088 488.823 324.088C489.951 324.088 490.779 323.824 491.307 323.296C491.835 322.768 492.099 321.964 492.099 320.884V318.868L492.279 316.978L492.189 315.07V312.46H493.827V320.704C493.827 322.384 493.407 323.62 492.566 324.412C491.727 325.204 490.497 325.6 488.877 325.6ZM488.661 321.604C487.737 321.604 486.909 321.412 486.177 321.028C485.457 320.632 484.881 320.086 484.449 319.39C484.029 318.694 483.819 317.89 483.819 316.978C483.819 316.054 484.029 315.25 484.449 314.566C484.881 313.87 485.457 313.33 486.177 312.946C486.909 312.562 487.737 312.37 488.661 312.37C489.477 312.37 490.221 312.538 490.893 312.874C491.565 313.198 492.099 313.702 492.495 314.386C492.903 315.07 493.107 315.934 493.107 316.978C493.107 318.01 492.903 318.868 492.495 319.552C492.099 320.236 491.565 320.752 490.893 321.1C490.221 321.436 489.477 321.604 488.661 321.604ZM488.859 320.092C489.495 320.092 490.059 319.96 490.551 319.696C491.043 319.432 491.427 319.066 491.703 318.598C491.991 318.13 492.135 317.59 492.135 316.978C492.135 316.366 491.991 315.826 491.703 315.358C491.427 314.89 491.043 314.53 490.551 314.278C490.059 314.014 489.495 313.882 488.859 313.882C488.223 313.882 487.653 314.014 487.149 314.278C486.657 314.53 486.267 314.89 485.979 315.358C485.703 315.826 485.565 316.366 485.565 316.978C485.565 317.59 485.703 318.13 485.979 318.598C486.267 319.066 486.657 319.432 487.149 319.696C487.653 319.96 488.223 320.092 488.859 320.092ZM501.376 322.108C500.356 322.108 499.456 321.898 498.676 321.478C497.908 321.058 497.308 320.482 496.876 319.75C496.456 319.018 496.246 318.178 496.246 317.23C496.246 316.282 496.45 315.442 496.858 314.71C497.278 313.978 497.848 313.408 498.568 313C499.3 312.58 500.122 312.37 501.034 312.37C501.958 312.37 502.774 312.574 503.482 312.982C504.19 313.39 504.742 313.966 505.138 314.71C505.546 315.442 505.75 316.3 505.75 317.284C505.75 317.356 505.744 317.44 505.732 317.536C505.732 317.632 505.726 317.722 505.714 317.806H497.596V316.564H504.814L504.112 316.996C504.124 316.384 503.998 315.838 503.734 315.358C503.47 314.878 503.104 314.506 502.636 314.242C502.18 313.966 501.646 313.828 501.034 313.828C500.434 313.828 499.9 313.966 499.432 314.242C498.964 314.506 498.598 314.884 498.334 315.376C498.07 315.856 497.938 316.408 497.938 317.032V317.32C497.938 317.956 498.082 318.526 498.37 319.03C498.67 319.522 499.084 319.906 499.612 320.182C500.14 320.458 500.746 320.596 501.43 320.596C501.994 320.596 502.504 320.5 502.96 320.308C503.428 320.116 503.836 319.828 504.184 319.444L505.138 320.56C504.706 321.064 504.166 321.448 503.518 321.712C502.882 321.976 502.168 322.108 501.376 322.108Z" fill="white"/>
<path d="M528.523 320.938V325.189C528.523 325.486 528.714 325.749 528.996 325.843C529.067 325.865 529.139 325.877 529.211 325.877C529.425 325.877 529.633 325.776 529.765 325.596L532.252 322.212L528.523 320.938Z" fill="#F6F6F6"/>
<path d="M542.211 304.917C542 304.767 541.724 304.747 541.494 304.867L520.869 315.638C520.626 315.765 520.482 316.026 520.502 316.3C520.523 316.575 520.705 316.809 520.965 316.898L526.699 318.858L538.909 308.417L529.46 319.801L539.07 323.086C539.141 323.11 539.217 323.122 539.292 323.122C539.416 323.122 539.54 323.089 539.649 323.023C539.823 322.916 539.942 322.737 539.972 322.537L542.493 305.578C542.53 305.322 542.422 305.067 542.211 304.917Z" fill="#F6F6F6"/>
</g>
</svg>
